<svg width="31" height="31" viewBox="0 0 31 31" fill="none" xmlns="http://www.w3.org/2000/svg">
<path d="M15.6323 0.00143132C6.96233 -0.11558 -0.11567 6.95691 0.00143243 15.6202C0.117052 23.9287 6.88747 30.6938 15.2025 30.8093C23.8739 30.9278 30.9504 23.8553 30.8319 15.1921C30.7177 6.88211 23.9473 0.116961 15.6323 0.00143132ZM14.3879 14.2553L18.2086 9.88588C18.4156 9.64921 18.7081 9.50438 19.022 9.48327C19.3358 9.46216 19.6452 9.56649 19.8821 9.77332C20.1189 9.98014 20.2639 10.2725 20.285 10.5861C20.3061 10.8997 20.2017 11.2089 19.9947 11.4455L16.1741 15.8149C16.0716 15.9321 15.947 16.028 15.8075 16.0971C15.6679 16.1661 15.5161 16.2071 15.3607 16.2175C15.2053 16.228 15.0493 16.2078 14.9018 16.158C14.7542 16.1082 14.6179 16.0299 14.5006 15.9275C14.3833 15.8251 14.2874 15.7006 14.2182 15.5611C14.1491 15.4217 14.1081 15.27 14.0977 15.1147C14.0872 14.9594 14.1074 14.8036 14.1573 14.6561C14.2071 14.5087 14.2854 14.3725 14.3879 14.2553ZM11.5078 20.9834C11.2854 21.2054 10.9839 21.3302 10.6696 21.3302C10.3552 21.3302 10.0537 21.2054 9.83133 20.9834L6.2775 17.4286C6.16743 17.3185 6.08013 17.1879 6.02059 17.0441C5.96105 16.9003 5.93044 16.7461 5.93051 16.5905C5.93058 16.4349 5.96132 16.2808 6.02099 16.1371C6.08065 15.9933 6.16807 15.8627 6.27825 15.7527C6.38842 15.6427 6.5192 15.5555 6.66312 15.496C6.80704 15.4365 6.96127 15.4059 7.11701 15.406C7.27276 15.4061 7.42697 15.4368 7.57083 15.4964C7.71469 15.556 7.84539 15.6434 7.95547 15.7535L11.513 19.3082C11.7345 19.5311 11.8584 19.8328 11.8575 20.1469C11.8565 20.461 11.7307 20.7619 11.5078 20.9834ZM24.6114 11.4455L16.3194 20.9249C16.2125 21.0472 16.0817 21.1463 15.9349 21.216C15.7882 21.2857 15.6287 21.3245 15.4663 21.33H15.4263C15.2705 21.33 15.1162 21.2993 14.9722 21.2397C14.8282 21.1802 14.6974 21.0928 14.5873 20.9827L11.0342 17.4279C10.8119 17.2056 10.6871 16.9041 10.6872 16.5898C10.6874 16.2755 10.8124 15.9741 11.035 15.752C11.2575 15.5298 11.5592 15.4051 11.8737 15.4053C12.1883 15.4054 12.4899 15.5304 12.7122 15.7527L14.9208 17.9619C14.9782 18.0192 15.0468 18.0642 15.1224 18.094C15.1979 18.1238 15.2788 18.1378 15.3599 18.1351C15.4411 18.1324 15.5208 18.1131 15.5942 18.0783C15.6676 18.0435 15.733 17.9941 15.7865 17.933L22.8274 9.88588C23.0344 9.64921 23.327 9.50438 23.6409 9.48327C23.9547 9.46216 24.2641 9.56649 24.5009 9.77332C24.7378 9.98014 24.8827 10.2725 24.9039 10.5861C24.925 10.8997 24.8206 11.2089 24.6136 11.4455H24.6114Z" fill="#408A7E"/>
</svg>
