<svg width="40" height="40" viewBox="0 0 40 40" fill="none" xmlns="http://www.w3.org/2000/svg">
<g id="jam:messages-alt">
<path id="Vector" d="M15.6716 26.71L16.7383 26.5267C16.9449 26.49 17.1916 26.4367 17.4766 26.3634C20.9999 25.48 23.3333 22.8467 23.3333 20C23.3333 16.4417 19.7066 13.3334 14.9999 13.3334C10.2933 13.3334 6.66659 16.4417 6.66659 20C6.66659 22.03 7.83659 23.9634 9.88492 25.25L9.94492 25.2834L11.6666 26.2334V30.8384L15.6716 26.71ZM17.3083 29.81L11.1966 36.11C10.9656 36.3483 10.6688 36.5122 10.3441 36.5807C10.0194 36.6492 9.68167 36.6193 9.37412 36.4947C9.06657 36.3701 8.80321 36.1565 8.61777 35.8813C8.43234 35.6062 8.33327 35.2819 8.33325 34.95V28.2C8.25879 28.1598 8.18543 28.1176 8.11325 28.0734C5.21492 26.2534 3.33325 23.315 3.33325 20C3.33325 14.4767 8.55659 10 14.9999 10C21.4433 10 26.6666 14.4767 26.6666 20C26.6666 24.5434 23.1316 28.38 18.2899 29.5967C17.9654 29.6799 17.638 29.751 17.3083 29.81ZM14.8933 8.33337C16.9099 5.34504 20.6833 3.33337 24.9999 3.33337C31.4433 3.33337 36.6666 7.81004 36.6666 13.3334C36.6666 16.6484 34.7833 19.5867 31.8866 21.4067C31.8144 21.4509 31.741 21.4931 31.6666 21.5334V28.2834C31.6666 28.6152 31.5675 28.9395 31.3821 29.2147C31.1966 29.4899 30.9333 29.7034 30.6257 29.828C30.3182 29.9526 29.9804 29.9826 29.6557 29.914C29.3311 29.8455 29.0342 29.6816 28.8033 29.4434L25.9116 26.4634L27.6499 23.4667L28.3333 24.1717V19.5667L30.0549 18.6167L30.1149 18.5834C32.1649 17.2967 33.3333 15.3634 33.3333 13.3334C33.3333 9.77504 29.7066 6.66671 24.9999 6.66671C22.8666 6.66671 20.9566 7.30504 19.5049 8.33337H14.8933Z" fill="white"/>
</g>
</svg>
