<svg width="28" height="28" viewBox="0 0 28 28" fill="none" xmlns="http://www.w3.org/2000/svg">
<g id="material-symbols:home-rounded">
<path id="Vector" d="M7.00008 24.5C6.35841 24.5 5.8093 24.2718 5.35275 23.8152C4.89541 23.3579 4.66675 22.8084 4.66675 22.1667V11.6667C4.66675 11.2973 4.74958 10.9473 4.91525 10.6167C5.08014 10.2862 5.30841 10.0139 5.60008 9.80004L12.6001 4.55004C12.814 4.39449 13.0376 4.27782 13.2709 4.20004C13.5042 4.12226 13.7473 4.08337 14.0001 4.08337C14.2529 4.08337 14.4959 4.12226 14.7292 4.20004C14.9626 4.27782 15.1862 4.39449 15.4001 4.55004L22.4001 9.80004C22.6917 10.0139 22.9204 10.2862 23.0861 10.6167C23.251 10.9473 23.3334 11.2973 23.3334 11.6667V22.1667C23.3334 22.8084 23.1051 23.3579 22.6486 23.8152C22.1912 24.2718 21.6417 24.5 21.0001 24.5H16.3334V16.3334H11.6667V24.5H7.00008Z" fill="#4169E1"/>
</g>
</svg>
