<svg width="182" height="33" viewBox="0 0 182 33" fill="none" xmlns="http://www.w3.org/2000/svg">
<path d="M16.1449 23.1721L24.4067 28.1586L22.2143 18.7605L29.5135 12.4372L19.9015 11.6217L16.1449 2.7583L12.3884 11.6217L2.77637 12.4372L10.0756 18.7605L7.88316 28.1586L16.1449 23.1721Z" fill="#F8A401"/>
<path d="M53.5766 23.1721L61.8384 28.1586L59.6459 18.7605L66.9452 12.4372L57.3332 11.6217L53.5766 2.7583L49.82 11.6217L40.208 12.4372L47.5073 18.7605L45.3148 28.1586L53.5766 23.1721Z" fill="#F8A401"/>
<path d="M91.0092 23.1721L99.271 28.1586L97.0785 18.7605L104.378 12.4372L94.7658 11.6217L91.0092 2.7583L87.2526 11.6217L77.6406 12.4372L84.9399 18.7605L82.7474 28.1586L91.0092 23.1721Z" fill="#F8A401"/>
<path d="M141.809 12.4372L132.197 11.6083L128.441 2.7583L124.684 11.6217L115.072 12.4372L122.372 18.7605L120.179 28.1586L128.441 23.1721L136.703 28.1586L134.524 18.7605L141.809 12.4372ZM128.441 20.6722V8.23942L130.727 13.6403L136.582 14.1483L132.144 17.9985L133.481 23.7202L128.441 20.6722Z" fill="#F8A401"/>
<path d="M179.242 12.4372L169.63 11.6083L165.873 2.7583L162.117 11.6217L152.505 12.4372L159.804 18.7605L157.612 28.1586L165.873 23.1721L174.135 28.1586L171.956 18.7605L179.242 12.4372ZM165.873 20.6722L160.847 23.7069L162.184 17.9851L157.745 14.135L163.601 13.627L165.873 8.23942L168.159 13.6403L174.015 14.1483L169.577 17.9985L170.913 23.7202L165.873 20.6722Z" fill="#F8A401"/>
</svg>
