<svg width="147" height="268" viewBox="0 0 147 268" fill="none" xmlns="http://www.w3.org/2000/svg">
<path fill-rule="evenodd" clip-rule="evenodd" d="M61.623 247.316C60.6341 247.318 59.6666 247.031 58.843 246.492C58.0194 245.952 57.3766 245.183 56.9959 244.283C56.6152 243.383 56.5137 242.392 56.7042 241.435C56.8947 240.478 57.3687 239.598 58.0662 238.907C58.7637 238.216 59.6534 237.744 60.6228 237.551C61.5923 237.359 62.5978 237.454 63.5124 237.825C64.427 238.196 65.2095 238.826 65.7609 239.635C66.3124 240.445 66.608 241.397 66.6105 242.373C66.6138 243.68 66.0902 244.936 65.1548 245.863C64.2195 246.79 62.9491 247.313 61.623 247.316ZM61.5731 227.592C60.5842 227.595 59.6168 227.308 58.7932 226.768C57.9696 226.228 57.3267 225.46 56.946 224.56C56.5653 223.66 56.4638 222.669 56.6543 221.712C56.8448 220.755 57.3188 219.875 58.0163 219.184C58.7138 218.492 59.6036 218.02 60.573 217.828C61.5424 217.635 62.548 217.73 63.4625 218.101C64.3771 218.472 65.1596 219.102 65.711 219.912C66.2625 220.721 66.5582 221.674 66.5606 222.649C66.5639 223.957 66.0403 225.212 65.105 226.139C64.1696 227.067 62.8992 227.589 61.5731 227.592ZM61.5232 207.869C60.5343 207.871 59.5669 207.585 58.7433 207.045C57.9197 206.505 57.2769 205.737 56.8962 204.836C56.5154 203.936 56.4139 202.945 56.6044 201.988C56.7949 201.031 57.2689 200.152 57.9664 199.46C58.664 198.769 59.5537 198.297 60.5231 198.104C61.4925 197.912 62.4981 198.007 63.4127 198.378C64.3272 198.749 65.1097 199.379 65.6612 200.188C66.2126 200.998 66.5083 201.951 66.5108 202.926C66.5141 204.234 65.9905 205.489 65.0551 206.416C64.1198 207.343 62.8493 207.866 61.5232 207.869ZM61.4734 188.146C60.4845 188.148 59.517 187.861 58.6934 187.321C57.8698 186.782 57.227 186.013 56.8463 185.113C56.4656 184.213 56.3641 183.222 56.5546 182.265C56.7451 181.308 57.219 180.428 57.9166 179.737C58.6141 179.045 59.5038 178.574 60.4732 178.381C61.4426 178.188 62.4482 178.284 63.3628 178.655C64.2774 179.025 65.0599 179.656 65.6113 180.465C66.1628 181.275 66.4584 182.227 66.4609 183.202C66.4642 184.51 65.9406 185.766 65.0052 186.693C64.0699 187.62 62.7994 188.142 61.4734 188.146ZM61.4235 168.422C60.4346 168.425 59.4672 168.138 58.6436 167.598C57.8199 167.058 57.1771 166.29 56.7964 165.39C56.4157 164.49 56.3142 163.498 56.5047 162.541C56.6952 161.584 57.1692 160.705 57.8667 160.013C58.5642 159.322 59.4539 158.85 60.4234 158.658C61.3928 158.465 62.3984 158.56 63.3129 158.931C64.2275 159.302 65.01 159.932 65.5614 160.742C66.1129 161.551 66.4085 162.504 66.411 163.479C66.4143 164.787 65.8907 166.042 64.9554 166.969C64.02 167.896 62.7496 168.419 61.4235 168.422ZM61.3736 148.699C60.3847 148.701 59.4173 148.414 58.5937 147.875C57.7701 147.335 57.1273 146.566 56.7466 145.666C56.3658 144.766 56.2643 143.775 56.4548 142.818C56.6453 141.861 57.1193 140.981 57.8168 140.29C58.5143 139.599 59.4041 139.127 60.3735 138.934C61.3429 138.742 62.3485 138.837 63.2631 139.208C64.1776 139.579 64.9601 140.209 65.5116 141.018C66.063 141.828 66.3587 142.78 66.3611 143.756C66.3644 145.063 65.8408 146.319 64.9055 147.246C63.9702 148.173 62.6997 148.696 61.3736 148.699ZM61.3238 128.975C60.3349 128.978 59.3674 128.691 58.5438 128.151C57.7202 127.611 57.0774 126.843 56.6967 125.943C56.316 125.043 56.2145 124.052 56.405 123.095C56.5955 122.138 57.0694 121.258 57.767 120.567C58.4645 119.875 59.3542 119.403 60.3236 119.211C61.293 119.018 62.2986 119.113 63.2132 119.484C64.1278 119.855 64.9103 120.485 65.4617 121.295C66.0132 122.104 66.3088 123.057 66.3113 124.032C66.3146 125.34 65.791 126.595 64.8556 127.522C63.9203 128.449 62.6498 128.972 61.3238 128.975ZM61.2739 109.252C60.285 109.254 59.3176 108.968 58.4939 108.428C57.6703 107.888 57.0275 107.119 56.6468 106.219C56.2661 105.319 56.1646 104.328 56.3551 103.371C56.5456 102.414 57.0196 101.534 57.7171 100.843C58.4146 100.152 59.3043 99.68 60.2738 99.4874C61.2432 99.2947 62.2487 99.3899 63.1633 99.7609C64.0779 100.132 64.8604 100.762 65.4118 101.571C65.9633 102.381 66.2589 103.334 66.2614 104.309C66.2647 105.617 65.7411 106.872 64.8058 107.799C63.8704 108.726 62.6 109.249 61.2739 109.252ZM61.224 89.5285C60.2351 89.531 59.2677 89.2442 58.4441 88.7044C57.6205 88.1646 56.9777 87.3961 56.5969 86.496C56.2162 85.5959 56.1147 84.6048 56.3052 83.6478C56.4957 82.6908 56.9697 81.8111 57.6672 81.1197C58.3647 80.4284 59.2545 79.9566 60.2239 79.764C61.1933 79.5713 62.1989 79.6665 63.1134 80.0375C64.028 80.4084 64.8105 81.0385 65.362 81.848C65.9134 82.6575 66.2091 83.6102 66.2115 84.5854C66.2148 85.8931 65.6912 87.1486 64.7559 88.0756C63.8206 89.0027 62.5501 89.5253 61.224 89.5285ZM61.1742 69.8051C60.1853 69.8076 59.2178 69.5207 58.3942 68.981C57.5706 68.4412 56.9278 67.6727 56.5471 66.7726C56.1664 65.8725 56.0648 64.8813 56.2553 63.9244C56.4459 62.9674 56.9198 62.0876 57.6173 61.3963C58.3149 60.705 59.2046 60.2332 60.174 60.0406C61.1434 59.8479 62.149 59.9431 63.0636 60.3141C63.9781 60.685 64.7606 61.3151 65.3121 62.1246C65.8635 62.9341 66.1592 63.8867 66.1617 64.862C66.165 66.1697 65.6414 67.4252 64.706 68.3522C63.7707 69.2792 62.5002 69.8019 61.1742 69.8051ZM61.1243 50.0817C60.1354 50.0842 59.1679 49.7973 58.3443 49.2576C57.5207 48.7178 56.8779 47.9492 56.4972 47.0492C56.1165 46.1491 56.015 45.1579 56.2055 44.201C56.396 43.244 56.87 42.3642 57.5675 41.6729C58.265 40.9816 59.1547 40.5098 60.1241 40.3172C61.0936 40.1245 62.0991 40.2197 63.0137 40.5906C63.9283 40.9616 64.7108 41.5917 65.2622 42.4012C65.8137 43.2107 66.1093 44.1633 66.1118 45.1386C66.1151 46.4463 65.5915 47.7018 64.6562 48.6288C63.7208 49.5558 62.4504 50.0785 61.1243 50.0817ZM61.0744 30.3583C60.0855 30.3607 59.1181 30.0739 58.2945 29.5341C57.4709 28.9944 56.8281 28.2258 56.4473 27.3258C56.0666 26.4257 55.9651 25.4345 56.1556 24.4776C56.3461 23.5206 56.8201 22.6408 57.5176 21.9495C58.2151 21.2582 59.1049 20.7864 60.0743 20.5937C61.0437 20.4011 62.0493 20.4963 62.9638 20.8672C63.8784 21.2382 64.6609 21.8683 65.2124 22.6778C65.7638 23.4873 66.0595 24.4399 66.0619 25.4152C66.0652 26.7229 65.5416 27.9784 64.6063 28.9054C63.6709 29.8324 62.4005 30.355 61.0744 30.3583ZM61.0245 10.6349C60.0356 10.6373 59.0682 10.3505 58.2446 9.81073C57.421 9.27094 56.7782 8.50243 56.3975 7.60236C56.0167 6.7023 55.9152 5.71111 56.1057 4.75414C56.2962 3.79718 56.7702 2.91741 57.4677 2.2261C58.1653 1.53479 59.055 1.06298 60.0244 0.870337C60.9938 0.677694 61.9994 0.772871 62.914 1.14383C63.8285 1.51479 64.611 2.14486 65.1625 2.95439C65.7139 3.76391 66.0096 4.71652 66.0121 5.69175C66.0154 6.99949 65.4918 8.25497 64.5564 9.18199C63.6211 10.109 62.3506 10.6316 61.0245 10.6349ZM41.6729 267.088C40.684 267.091 39.7166 266.804 38.893 266.264C38.0694 265.724 37.4265 264.956 37.0458 264.056C36.6651 263.156 36.5636 262.165 36.7541 261.208C36.9446 260.251 37.4186 259.371 38.1161 258.68C38.8136 257.988 39.7034 257.516 40.6728 257.324C41.6422 257.131 42.6478 257.226 43.5623 257.597C44.4769 257.968 45.2594 258.598 45.8109 259.408C46.3623 260.217 46.658 261.17 46.6604 262.145C46.6637 263.453 46.1401 264.708 45.2048 265.636C44.2694 266.563 42.999 267.085 41.6729 267.088ZM41.623 247.365C40.6341 247.367 39.6667 247.081 38.8431 246.541C38.0195 246.001 37.3767 245.233 36.996 244.332C36.6152 243.432 36.5137 242.441 36.7042 241.484C36.8947 240.527 37.3687 239.648 38.0662 238.956C38.7638 238.265 39.6535 237.793 40.6229 237.6C41.5923 237.408 42.5979 237.503 43.5125 237.874C44.427 238.245 45.2095 238.875 45.761 239.684C46.3124 240.494 46.6081 241.447 46.6106 242.422C46.6139 243.73 46.0903 244.985 45.1549 245.912C44.2196 246.839 42.9491 247.362 41.623 247.365ZM41.5732 227.642C40.5843 227.644 39.6168 227.357 38.7932 226.817C37.9696 226.278 37.3268 225.509 36.9461 224.609C36.5654 223.709 36.4639 222.718 36.6544 221.761C36.8449 220.804 37.3188 219.924 38.0164 219.233C38.7139 218.541 39.6036 218.07 40.573 217.877C41.5425 217.684 42.548 217.78 43.4626 218.151C44.3772 218.521 45.1597 219.152 45.7111 219.961C46.2626 220.771 46.5582 221.723 46.5607 222.698C46.564 224.006 46.0404 225.262 45.105 226.189C44.1697 227.116 42.8992 227.638 41.5732 227.642ZM41.5233 207.918C40.5344 207.921 39.567 207.634 38.7434 207.094C37.9197 206.554 37.2769 205.786 36.8962 204.886C36.5155 203.986 36.414 202.994 36.6045 202.037C36.795 201.08 37.269 200.201 37.9665 199.509C38.664 198.818 39.5537 198.346 40.5232 198.154C41.4926 197.961 42.4982 198.056 43.4127 198.427C44.3273 198.798 45.1098 199.428 45.6612 200.238C46.2127 201.047 46.5084 202 46.5108 202.975C46.5141 204.283 45.9905 205.538 45.0552 206.465C44.1198 207.392 42.8494 207.915 41.5233 207.918ZM41.4734 188.195C40.4845 188.197 39.5171 187.91 38.6935 187.371C37.8699 186.831 37.2271 186.062 36.8464 185.162C36.4656 184.262 36.3641 183.271 36.5546 182.314C36.7451 181.357 37.2191 180.477 37.9166 179.786C38.6141 179.095 39.5039 178.623 40.4733 178.43C41.4427 178.238 42.4483 178.333 43.3629 178.704C44.2774 179.075 45.0599 179.705 45.6114 180.514C46.1628 181.324 46.4585 182.276 46.461 183.252C46.4643 184.559 45.9407 185.815 45.0053 186.742C44.07 187.669 42.7995 188.192 41.4734 188.195ZM41.4236 168.471C40.4347 168.474 39.4672 168.187 38.6436 167.647C37.82 167.107 37.1772 166.339 36.7965 165.439C36.4158 164.539 36.3143 163.548 36.5048 162.591C36.6953 161.634 37.1692 160.754 37.8668 160.063C38.5643 159.371 39.454 158.899 40.4234 158.707C41.3928 158.514 42.3984 158.609 43.313 158.98C44.2276 159.351 45.01 159.981 45.5615 160.791C46.113 161.6 46.4086 162.553 46.4111 163.528C46.4144 164.836 45.8908 166.091 44.9554 167.018C44.0201 167.945 42.7496 168.468 41.4236 168.471ZM41.3737 148.748C40.3848 148.75 39.4174 148.464 38.5937 147.924C37.7701 147.384 37.1273 146.615 36.7466 145.715C36.3659 144.815 36.2644 143.824 36.4549 142.867C36.6454 141.91 37.1194 141.03 37.8169 140.339C38.5144 139.648 39.4041 139.176 40.3736 138.983C41.343 138.791 42.3485 138.886 43.2631 139.257C44.1777 139.628 44.9602 140.258 45.5116 141.067C46.0631 141.877 46.3587 142.83 46.3612 143.805C46.3645 145.113 45.8409 146.368 44.9056 147.295C43.9702 148.222 42.6998 148.745 41.3737 148.748ZM41.3238 129.025C40.3349 129.027 39.3675 128.74 38.5439 128.2C37.7203 127.661 37.0775 126.892 36.6967 125.992C36.316 125.092 36.2145 124.101 36.405 123.144C36.5955 122.187 37.0695 121.307 37.767 120.616C38.4645 119.924 39.3543 119.453 40.3237 119.26C41.2931 119.067 42.2987 119.163 43.2132 119.533C44.1278 119.904 44.9103 120.535 45.4618 121.344C46.0132 122.154 46.3089 123.106 46.3113 124.081C46.3146 125.389 45.791 126.645 44.8557 127.572C43.9204 128.499 42.6499 129.021 41.3238 129.025ZM41.274 109.301C40.2851 109.304 39.3176 109.017 38.494 108.477C37.6704 107.937 37.0276 107.169 36.6469 106.269C36.2662 105.369 36.1646 104.377 36.3551 103.42C36.5457 102.463 37.0196 101.584 37.7171 100.892C38.4147 100.201 39.3044 99.7292 40.2738 99.5366C41.2432 99.3439 42.2488 99.4391 43.1634 99.8101C44.078 100.181 44.8604 100.811 45.4119 101.621C45.9634 102.43 46.259 103.383 46.2615 104.358C46.2648 105.666 45.7412 106.921 44.8058 107.848C43.8705 108.775 42.6 109.298 41.274 109.301ZM41.2241 89.5777C40.2352 89.5802 39.2678 89.2933 38.4441 88.7536C37.6205 88.2138 36.9777 87.4452 36.597 86.5452C36.2163 85.6451 36.1148 84.6539 36.3053 83.697C36.4958 82.74 36.9698 81.8602 37.6673 81.1689C38.3648 80.4776 39.2545 80.0058 40.2239 79.8132C41.1934 79.6205 42.1989 79.7157 43.1135 80.0866C44.0281 80.4576 44.8106 81.0877 45.362 81.8972C45.9135 82.7067 46.2091 83.6593 46.2116 84.6346C46.2149 85.9423 45.6913 87.1978 44.756 88.1248C43.8206 89.0518 42.5502 89.5745 41.2241 89.5777ZM41.1742 69.8543C40.1853 69.8567 39.2179 69.5699 38.3943 69.0301C37.5707 68.4904 36.9279 67.7218 36.5471 66.8218C36.1664 65.9217 36.0649 64.9305 36.2554 63.9736C36.4459 63.0166 36.9199 62.1368 37.6174 61.4455C38.3149 60.7542 39.2047 60.2824 40.1741 60.0898C41.1435 59.8971 42.1491 59.9923 43.0636 60.3632C43.9782 60.7342 44.7607 61.3643 45.3122 62.1738C45.8636 62.9833 46.1593 63.9359 46.1617 64.9112C46.165 66.2189 45.6414 67.4744 44.7061 68.4014C43.7707 69.3284 42.5003 69.851 41.1742 69.8543ZM41.1243 50.1309C40.1354 50.1333 39.168 49.8465 38.3444 49.3067C37.5208 48.7669 36.878 47.9984 36.4973 47.0984C36.1166 46.1983 36.015 45.2071 36.2055 44.2501C36.396 43.2932 36.87 42.4134 37.5675 41.7221C38.2651 41.0308 39.1548 40.559 40.1242 40.3663C41.0936 40.1737 42.0992 40.2689 43.0138 40.6398C43.9283 41.0108 44.7108 41.6409 45.2623 42.4504C45.8137 43.2599 46.1094 44.2125 46.1119 45.1878C46.1152 46.4955 45.5916 47.751 44.6562 48.678C43.7209 49.605 42.4504 50.1276 41.1243 50.1309ZM41.0745 30.4075C40.0856 30.4099 39.1181 30.1231 38.2945 29.5833C37.4709 29.0435 36.8281 28.275 36.4474 27.375C36.0667 26.4749 35.9652 25.4837 36.1557 24.5267C36.3462 23.5698 36.8201 22.69 37.5177 21.9987C38.2152 21.3074 39.1049 20.8356 40.0743 20.6429C41.0438 20.4503 42.0493 20.5455 42.9639 20.9164C43.8785 21.2874 44.661 21.9175 45.2124 22.727C45.7639 23.5365 46.0595 24.4891 46.062 25.4643C46.0653 26.7721 45.5417 28.0276 44.6064 28.9546C43.671 29.8816 42.4006 30.4042 41.0745 30.4075ZM41.0246 10.6841C40.0357 10.6865 39.0683 10.3997 38.2447 9.85991C37.4211 9.32012 36.7782 8.55161 36.3975 7.65154C36.0168 6.75148 35.9153 5.76029 36.1058 4.80332C36.2963 3.84636 36.7703 2.96659 37.4678 2.27528C38.1653 1.58397 39.055 1.11216 40.0245 0.919517C40.9939 0.726874 41.9995 0.822051 42.914 1.19301C43.8286 1.56397 44.6111 2.19404 45.1626 3.00357C45.714 3.81309 46.0097 4.7657 46.0121 5.74093C46.0154 7.04867 45.4918 8.30415 44.5565 9.23117C43.6211 10.1582 42.3507 10.6808 41.0246 10.6841ZM21.673 267.138C20.6841 267.14 19.7166 266.853 18.893 266.313C18.0694 265.774 17.4266 265.005 17.0459 264.105C16.6652 263.205 16.5637 262.214 16.7542 261.257C16.9447 260.3 17.4187 259.42 18.1162 258.729C18.8137 258.038 19.7034 257.566 20.6728 257.373C21.6423 257.18 22.6478 257.276 23.5624 257.647C24.477 258.018 25.2595 258.648 25.8109 259.457C26.3624 260.267 26.658 261.219 26.6605 262.194C26.6638 263.502 26.1402 264.758 25.2048 265.685C24.2695 266.612 22.9991 267.134 21.673 267.138ZM21.6231 247.414C20.6342 247.417 19.6668 247.13 18.8432 246.59C18.0195 246.05 17.3767 245.282 16.996 244.382C16.6153 243.482 16.5138 242.49 16.7043 241.533C16.8948 240.576 17.3688 239.697 18.0663 239.005C18.7638 238.314 19.6535 237.842 20.623 237.65C21.5924 237.457 22.598 237.552 23.5125 237.923C24.4271 238.294 25.2096 238.924 25.761 239.734C26.3125 240.543 26.6082 241.496 26.6106 242.471C26.6139 243.779 26.0903 245.034 25.155 245.961C24.2196 246.888 22.9492 247.411 21.6231 247.414ZM21.5732 227.691C20.5843 227.693 19.6169 227.406 18.7933 226.867C17.9697 226.327 17.3269 225.558 16.9462 224.658C16.5654 223.758 16.4639 222.767 16.6544 221.81C16.8449 220.853 17.3189 219.973 18.0164 219.282C18.7139 218.591 19.6037 218.119 20.5731 217.926C21.5425 217.734 22.5481 217.829 23.4627 218.2C24.3772 218.571 25.1597 219.201 25.7112 220.01C26.2626 220.82 26.5583 221.772 26.5608 222.748C26.5641 224.055 26.0405 225.311 25.1051 226.238C24.1698 227.165 22.8993 227.688 21.5732 227.691ZM21.5234 207.967C20.5345 207.97 19.567 207.683 18.7434 207.143C17.9198 206.603 17.277 205.835 16.8963 204.935C16.5156 204.035 16.4141 203.044 16.6046 202.087C16.7951 201.13 17.269 200.25 17.9666 199.559C18.6641 198.867 19.5538 198.395 20.5232 198.203C21.4926 198.01 22.4982 198.105 23.4128 198.476C24.3274 198.847 25.1098 199.477 25.6613 200.287C26.2128 201.096 26.5084 202.049 26.5109 203.024C26.5142 204.332 25.9906 205.587 25.0552 206.514C24.1199 207.441 22.8494 207.964 21.5234 207.967ZM21.4735 188.244C20.4846 188.246 19.5172 187.96 18.6935 187.42C17.8699 186.88 17.2271 186.111 16.8464 185.211C16.4657 184.311 16.3642 183.32 16.5547 182.363C16.7452 181.406 17.2192 180.526 17.9167 179.835C18.6142 179.144 19.5039 178.672 20.4734 178.479C21.4428 178.287 22.4483 178.382 23.3629 178.753C24.2775 179.124 25.06 179.754 25.6114 180.563C26.1629 181.373 26.4585 182.326 26.461 183.301C26.4643 184.609 25.9407 185.864 25.0054 186.791C24.07 187.718 22.7996 188.241 21.4735 188.244ZM21.4236 168.521C20.4347 168.523 19.4673 168.236 18.6437 167.696C17.8201 167.157 17.1773 166.388 16.7965 165.488C16.4158 164.588 16.3143 163.597 16.5048 162.64C16.6953 161.683 17.1693 160.803 17.8668 160.112C18.5643 159.42 19.4541 158.949 20.4235 158.756C21.3929 158.563 22.3985 158.659 23.313 159.029C24.2276 159.4 25.0101 160.031 25.5616 160.84C26.113 161.65 26.4087 162.602 26.4111 163.577C26.4144 164.885 25.8908 166.141 24.9555 167.068C24.0202 167.995 22.7497 168.517 21.4236 168.521ZM21.3738 148.797C20.3849 148.8 19.4174 148.513 18.5938 147.973C17.7702 147.433 17.1274 146.665 16.7467 145.765C16.366 144.865 16.2644 143.873 16.4549 142.916C16.6455 141.959 17.1194 141.08 17.8169 140.388C18.5145 139.697 19.4042 139.225 20.3736 139.033C21.343 138.84 22.3486 138.935 23.2632 139.306C24.1778 139.677 24.9602 140.307 25.5117 141.117C26.0632 141.926 26.3588 142.879 26.3613 143.854C26.3646 145.162 25.841 146.417 24.9056 147.344C23.9703 148.271 22.6998 148.794 21.3738 148.797ZM21.3239 129.074C20.335 129.076 19.3676 128.789 18.5439 128.25C17.7203 127.71 17.0775 126.941 16.6968 126.041C16.3161 125.141 16.2146 124.15 16.4051 123.193C16.5956 122.236 17.0696 121.356 17.7671 120.665C18.4646 119.974 19.3543 119.502 20.3237 119.309C21.2932 119.117 22.2987 119.212 23.2133 119.583C24.1279 119.954 24.9104 120.584 25.4618 121.393C26.0133 122.203 26.3089 123.155 26.3114 124.131C26.3147 125.438 25.7911 126.694 24.8558 127.621C23.9204 128.548 22.65 129.07 21.3239 129.074ZM21.274 109.35C20.2851 109.353 19.3177 109.066 18.4941 108.526C17.6705 107.986 17.0277 107.218 16.6469 106.318C16.2662 105.418 16.1647 104.427 16.3552 103.47C16.5457 102.513 17.0197 101.633 17.7172 100.942C18.4147 100.25 19.3045 99.7784 20.2739 99.5857C21.2433 99.3931 22.2489 99.4883 23.1634 99.8592C24.078 100.23 24.8605 100.86 25.412 101.67C25.9634 102.479 26.2591 103.432 26.2615 104.407C26.2648 105.715 25.7412 106.97 24.8059 107.897C23.8705 108.824 22.6001 109.347 21.274 109.35ZM21.2241 89.6269C20.2352 89.6293 19.2678 89.3425 18.4442 88.8027C17.6206 88.2629 16.9778 87.4944 16.5971 86.5944C16.2164 85.6943 16.1148 84.7031 16.3053 83.7461C16.4959 82.7892 16.9698 81.9094 17.6673 81.2181C18.3649 80.5268 19.2546 80.055 20.224 79.8623C21.1934 79.6697 22.199 79.7649 23.1136 80.1358C24.0281 80.5068 24.8106 81.1369 25.3621 81.9464C25.9135 82.7559 26.2092 83.7085 26.2117 84.6838C26.215 85.9915 25.6914 87.247 24.756 88.174C23.8207 89.101 22.5502 89.6236 21.2241 89.6269ZM21.1743 69.9035C20.1854 69.9059 19.2179 69.6191 18.3943 69.0793C17.5707 68.5395 16.9279 67.771 16.5472 66.8709C16.1665 65.9709 16.065 64.9797 16.2555 64.0227C16.446 63.0658 16.92 62.186 17.6175 61.4947C18.315 60.8034 19.2047 60.3316 20.1741 60.1389C21.1436 59.9463 22.1491 60.0415 23.0637 60.4124C23.9783 60.7834 24.7608 61.4135 25.3122 62.223C25.8637 63.0325 26.1593 63.9851 26.1618 64.9603C26.1651 66.2681 25.6415 67.5236 24.7062 68.4506C23.7708 69.3776 22.5004 69.9002 21.1743 69.9035ZM21.1244 50.1801C20.1355 50.1825 19.1681 49.8957 18.3445 49.3559C17.5208 48.8161 16.878 48.0476 16.4973 47.1475C16.1166 46.2475 16.0151 45.2563 16.2056 44.2993C16.3961 43.3424 16.8701 42.4626 17.5676 41.7713C18.2651 41.08 19.1548 40.6082 20.1243 40.4155C21.0937 40.2229 22.0993 40.318 23.0138 40.689C23.9284 41.06 24.7109 41.69 25.2623 42.4996C25.8138 43.3091 26.1095 44.2617 26.1119 45.2369C26.1152 46.5447 25.5916 47.8002 24.6563 48.7272C23.7209 49.6542 22.4505 50.1768 21.1244 50.1801ZM21.0745 30.4567C20.0856 30.4591 19.1182 30.1723 18.2946 29.6325C17.471 29.0927 16.8282 28.3242 16.4475 27.4241C16.0667 26.5241 15.9652 25.5329 16.1557 24.5759C16.3462 23.6189 16.8202 22.7392 17.5177 22.0479C18.2152 21.3566 19.105 20.8848 20.0744 20.6921C21.0438 20.4995 22.0494 20.5946 22.964 20.9656C23.8785 21.3366 24.661 21.9666 25.2125 22.7762C25.7639 23.5857 26.0596 24.5383 26.0621 25.5135C26.0654 26.8213 25.5418 28.0767 24.6064 29.0038C23.6711 29.9308 22.4006 30.4534 21.0745 30.4567ZM21.0247 10.7333C20.0358 10.7357 19.0683 10.4489 18.2447 9.90909C17.4211 9.3693 16.7783 8.60079 16.3976 7.70072C16.0169 6.80066 15.9154 5.80947 16.1059 4.8525C16.2964 3.89554 16.7703 3.01577 17.4679 2.32446C18.1654 1.63315 19.0551 1.16134 20.0245 0.968697C20.994 0.776054 21.9995 0.871231 22.9141 1.24219C23.8287 1.61315 24.6112 2.24322 25.1626 3.05275C25.7141 3.86227 26.0097 4.81488 26.0122 5.79011C26.0155 7.09785 25.4919 8.35333 24.5565 9.28035C23.6212 10.2074 22.3508 10.73 21.0247 10.7333ZM1.67303 267.187C0.684137 267.189 -0.283289 266.902 -1.1069 266.363C-1.93052 265.823 -2.57332 265.054 -2.95404 264.154C-3.33475 263.254 -3.43628 262.263 -3.24577 261.306C-3.05527 260.349 -2.58128 259.469 -1.88377 258.778C-1.18625 258.087 -0.296526 257.615 0.672892 257.422C1.64232 257.23 2.64789 257.325 3.56246 257.696C4.47703 258.067 5.25953 258.697 5.81098 259.506C6.36243 260.316 6.65808 261.268 6.66055 262.244C6.66386 263.551 6.14025 264.807 5.20491 265.734C4.26957 266.661 2.99912 267.184 1.67303 267.187ZM1.62316 247.463C0.634267 247.466 -0.333159 247.179 -1.15677 246.639C-1.98039 246.099 -2.62319 245.331 -3.00391 244.431C-3.38462 243.531 -3.48615 242.54 -3.29564 241.583C-3.10514 240.626 -2.63115 239.746 -1.93364 239.055C-1.23612 238.363 -0.346395 237.891 0.623023 237.699C1.59245 237.506 2.59802 237.601 3.51259 237.972C4.42716 238.343 5.20966 238.973 5.76111 239.783C6.31256 240.592 6.60822 241.545 6.61068 242.52C6.61399 243.828 6.09038 245.083 5.15504 246.01C4.2197 246.937 2.94925 247.46 1.62316 247.463ZM1.57329 227.74C0.584398 227.742 -0.383028 227.456 -1.20664 226.916C-2.03026 226.376 -2.67306 225.607 -3.05378 224.707C-3.43449 223.807 -3.53602 222.816 -3.34551 221.859C-3.155 220.902 -2.68102 220.022 -1.9835 219.331C-1.28599 218.64 -0.396265 218.168 0.573153 217.975C1.54258 217.783 2.54815 217.878 3.46272 218.249C4.37729 218.62 5.15979 219.25 5.71124 220.059C6.26269 220.869 6.55835 221.822 6.56081 222.797C6.56412 224.105 6.04051 225.36 5.10517 226.287C4.16983 227.214 2.89938 227.737 1.57329 227.74ZM1.52342 208.017C0.534528 208.019 -0.432898 207.732 -1.25651 207.192C-2.08013 206.653 -2.72293 205.884 -3.10365 204.984C-3.48436 204.084 -3.58588 203.093 -3.39538 202.136C-3.20487 201.179 -2.73089 200.299 -2.03337 199.608C-1.33586 198.916 -0.446134 198.445 0.523284 198.252C1.49271 198.059 2.49828 198.155 3.41285 198.525C4.32742 198.896 5.10992 199.527 5.66137 200.336C6.21282 201.146 6.50848 202.098 6.51094 203.073C6.51425 204.381 5.99064 205.637 5.0553 206.564C4.11997 207.491 2.84951 208.013 1.52342 208.017ZM1.47355 188.293C0.484659 188.296 -0.482767 188.009 -1.30638 187.469C-2.13 186.929 -2.7728 186.161 -3.15352 185.261C-3.53423 184.361 -3.63575 183.369 -3.44525 182.412C-3.25474 181.455 -2.78076 180.576 -2.08324 179.884C-1.38572 179.193 -0.496004 178.721 0.473414 178.529C1.44284 178.336 2.44841 178.431 3.36298 178.802C4.27755 179.173 5.06005 179.803 5.6115 180.613C6.16295 181.422 6.45861 182.375 6.46107 183.35C6.46438 184.658 5.94077 185.913 5.00543 186.84C4.0701 187.767 2.79964 188.29 1.47355 188.293ZM1.42369 168.57C0.434789 168.572 -0.532637 168.285 -1.35625 167.746C-2.17986 167.206 -2.82267 166.437 -3.20339 165.537C-3.5841 164.637 -3.68562 163.646 -3.49512 162.689C-3.30461 161.732 -2.83063 160.852 -2.13311 160.161C-1.43559 159.47 -0.545873 158.998 0.423545 158.805C1.39297 158.613 2.39854 158.708 3.31311 159.079C4.22768 159.45 5.01018 160.08 5.56163 160.889C6.11308 161.699 6.40874 162.651 6.4112 163.627C6.41451 164.934 5.8909 166.19 4.95556 167.117C4.02023 168.044 2.74977 168.566 1.42369 168.57ZM1.37382 148.846C0.38492 148.849 -0.582506 148.562 -1.40612 148.022C-2.22973 147.482 -2.87254 146.714 -3.25325 145.814C-3.63397 144.914 -3.73549 143.923 -3.54499 142.966C-3.35448 142.009 -2.8805 141.129 -2.18298 140.438C-1.48546 139.746 -0.595743 139.274 0.373675 139.082C1.3431 138.889 2.34867 138.984 3.26324 139.355C4.17781 139.726 4.96031 140.356 5.51176 141.166C6.06321 141.975 6.35887 142.928 6.36133 143.903C6.36464 145.211 5.84103 146.466 4.90569 147.393C3.97036 148.32 2.6999 148.843 1.37382 148.846ZM1.32395 129.123C0.33505 129.125 -0.632376 128.839 -1.45599 128.299C-2.2796 127.759 -2.92241 126.99 -3.30312 126.09C-3.68384 125.19 -3.78536 124.199 -3.59486 123.242C-3.40435 122.285 -2.93037 121.405 -2.23285 120.714C-1.53533 120.023 -0.645612 119.551 0.323806 119.358C1.29323 119.166 2.2988 119.261 3.21337 119.632C4.12795 120.003 4.91044 120.633 5.46189 121.442C6.01335 122.252 6.309 123.205 6.31146 124.18C6.31477 125.487 5.79116 126.743 4.85582 127.67C3.92049 128.597 2.65003 129.12 1.32395 129.123ZM1.27408 109.399C0.285181 109.402 -0.682245 109.115 -1.50586 108.575C-2.32947 108.036 -2.97228 107.267 -3.35299 106.367C-3.73371 105.467 -3.83523 104.476 -3.64473 103.519C-3.45422 102.562 -2.98024 101.682 -2.28272 100.991C-1.5852 100.299 -0.695482 99.8276 0.273936 99.6349C1.24336 99.4423 2.24893 99.5375 3.1635 99.9084C4.07808 100.279 4.86057 100.909 5.41202 101.719C5.96348 102.529 6.25913 103.481 6.26159 104.456C6.2649 105.764 5.74129 107.02 4.80595 107.947C3.87062 108.874 2.60016 109.396 1.27408 109.399ZM1.22421 89.6761C0.235311 89.6785 -0.732115 89.3917 -1.55573 88.8519C-2.37934 88.3121 -3.02215 87.5436 -3.40286 86.6435C-3.78358 85.7435 -3.8851 84.7523 -3.6946 83.7953C-3.50409 82.8384 -3.03011 81.9586 -2.33259 81.2673C-1.63507 80.576 -0.745351 80.1042 0.224067 79.9115C1.19349 79.7189 2.19906 79.814 3.11363 80.185C4.02821 80.556 4.8107 81.186 5.36215 81.9956C5.91361 82.8051 6.20926 83.7577 6.21172 84.7329C6.21503 86.0407 5.69143 87.2962 4.75608 88.2232C3.82075 89.1502 2.55029 89.6728 1.22421 89.6761ZM1.17434 69.9527C0.185442 69.9551 -0.781984 69.6683 -1.6056 69.1285C-2.42921 68.5887 -3.07202 67.8202 -3.45273 66.9201C-3.83345 66.0201 -3.93497 65.0289 -3.74447 64.0719C-3.55396 63.115 -3.07998 62.2352 -2.38246 61.5439C-1.68494 60.8526 -0.795221 60.3808 0.174197 60.1881C1.14362 59.9955 2.14919 60.0906 3.06376 60.4616C3.97834 60.8326 4.76083 61.4626 5.31228 62.2722C5.86374 63.0817 6.15939 64.0343 6.16186 65.0095C6.16516 66.3173 5.64156 67.5727 4.70621 68.4998C3.77088 69.4268 2.50042 69.9494 1.17434 69.9527ZM1.12447 50.2293C0.135572 50.2317 -0.831854 49.9449 -1.65547 49.4051C-2.47908 48.8653 -3.12189 48.0968 -3.5026 47.1967C-3.88332 46.2967 -3.98484 45.3055 -3.79434 44.3485C-3.60383 43.3915 -3.12985 42.5118 -2.43233 41.8205C-1.73481 41.1291 -0.84509 40.6573 0.124328 40.4647C1.09375 40.2721 2.09932 40.3672 3.01389 40.7382C3.92847 41.1091 4.71096 41.7392 5.26241 42.5487C5.81387 43.3583 6.10952 44.3109 6.11199 45.2861C6.11529 46.5939 5.59169 47.8493 4.65634 48.7764C3.72101 49.7034 2.45055 50.226 1.12447 50.2293ZM1.0746 30.5058C0.0857028 30.5083 -0.881723 30.2215 -1.70534 29.6817C-2.52895 29.1419 -3.17176 28.3734 -3.55247 27.4733C-3.93319 26.5732 -4.03471 25.5821 -3.8442 24.6251C-3.6537 23.6681 -3.17971 22.7884 -2.4822 22.0971C-1.78468 21.4057 -0.89496 20.9339 0.0744582 20.7413C1.04388 20.5486 2.04945 20.6438 2.96402 21.0148C3.8786 21.3857 4.66109 22.0158 5.21254 22.8253C5.764 23.6349 6.05965 24.5875 6.06212 25.5627C6.06542 26.8704 5.54182 28.1259 4.60647 29.0529C3.67114 29.98 2.40068 30.5026 1.0746 30.5058ZM1.02473 10.7824C0.0358333 10.7849 -0.931593 10.4981 -1.75521 9.95827C-2.57882 9.41848 -3.22163 8.64997 -3.60234 7.7499C-3.98306 6.84984 -4.08458 5.85865 -3.89407 4.90168C-3.70357 3.94472 -3.22958 3.06495 -2.53207 2.37364C-1.83455 1.68233 -0.944829 1.21052 0.0245887 1.01788C0.994014 0.825234 1.99958 0.920411 2.91415 1.29137C3.82873 1.66233 4.61122 2.2924 5.16267 3.10193C5.71413 3.91145 6.00978 4.86406 6.01225 5.83929C6.01555 7.14703 5.49195 8.40251 4.5566 9.32953C3.62127 10.2566 2.35081 10.7792 1.02473 10.7824ZM-18.3269 267.236C-19.3158 267.238 -20.2832 266.952 -21.1068 266.412C-21.9305 265.872 -22.5733 265.103 -22.954 264.203C-23.3347 263.303 -23.4362 262.312 -23.2457 261.355C-23.0552 260.398 -22.5812 259.518 -21.8837 258.827C-21.1862 258.136 -20.2965 257.664 -19.327 257.471C-18.3576 257.279 -17.352 257.374 -16.4375 257.745C-15.5229 258.116 -14.7404 258.746 -14.189 259.555C-13.6375 260.365 -13.3418 261.318 -13.3394 262.293C-13.3361 263.601 -13.8597 264.856 -14.795 265.783C-15.7304 266.71 -17.0008 267.233 -18.3269 267.236ZM-18.3768 247.513C-19.3657 247.515 -20.3331 247.228 -21.1567 246.688C-21.9803 246.149 -22.6231 245.38 -23.0038 244.48C-23.3846 243.58 -23.4861 242.589 -23.2956 241.632C-23.1051 240.675 -22.6311 239.795 -21.9336 239.104C-21.2361 238.412 -20.3463 237.941 -19.3769 237.748C-18.4075 237.555 -17.4019 237.651 -16.4873 238.021C-15.5728 238.392 -14.7903 239.022 -14.2388 239.832C-13.6874 240.642 -13.3917 241.594 -13.3893 242.569C-13.3859 243.877 -13.9096 245.133 -14.8449 246.06C-15.7802 246.987 -17.0507 247.509 -18.3768 247.513ZM-18.4266 227.789C-19.4155 227.792 -20.383 227.505 -21.2066 226.965C-22.0302 226.425 -22.673 225.657 -23.0537 224.757C-23.4344 223.857 -23.536 222.865 -23.3454 221.908C-23.1549 220.951 -22.681 220.072 -21.9834 219.38C-21.2859 218.689 -20.3962 218.217 -19.4268 218.025C-18.4574 217.832 -17.4518 217.927 -16.5372 218.298C-15.6226 218.669 -14.8402 219.299 -14.2887 220.109C-13.7372 220.918 -13.4416 221.871 -13.4391 222.846C-13.4358 224.154 -13.9594 225.409 -14.8948 226.336C-15.8301 227.263 -17.1006 227.786 -18.4266 227.789ZM-18.4765 208.066C-19.4654 208.068 -20.4328 207.781 -21.2565 207.242C-22.0801 206.702 -22.7229 205.933 -23.1036 205.033C-23.4843 204.133 -23.5858 203.142 -23.3953 202.185C-23.2048 201.228 -22.7308 200.348 -22.0333 199.657C-21.3358 198.966 -20.4461 198.494 -19.4767 198.301C-18.5072 198.109 -17.5016 198.204 -16.5871 198.575C-15.6725 198.946 -14.89 199.576 -14.3386 200.385C-13.7871 201.195 -13.4915 202.147 -13.489 203.123C-13.4857 204.43 -14.0093 205.686 -14.9446 206.613C-15.88 207.54 -17.1504 208.062 -18.4765 208.066ZM-18.5264 188.342C-19.5153 188.345 -20.4827 188.058 -21.3063 187.518C-22.1299 186.978 -22.7727 186.21 -23.1535 185.31C-23.5342 184.41 -23.6357 183.419 -23.4452 182.462C-23.2547 181.505 -22.7807 180.625 -22.0832 179.934C-21.3857 179.242 -20.4959 178.77 -19.5265 178.578C-18.5571 178.385 -17.5515 178.48 -16.637 178.851C-15.7224 179.222 -14.9399 179.852 -14.3884 180.662C-13.837 181.471 -13.5413 182.424 -13.5389 183.399C-13.5356 184.707 -14.0592 185.962 -14.9945 186.889C-15.9298 187.816 -17.2003 188.339 -18.5264 188.342ZM-18.5762 168.619C-19.5651 168.621 -20.5326 168.335 -21.3562 167.795C-22.1798 167.255 -22.8226 166.486 -23.2033 165.586C-23.584 164.686 -23.6856 163.695 -23.4951 162.738C-23.3045 161.781 -22.8306 160.901 -22.1331 160.21C-21.4355 159.519 -20.5458 159.047 -19.5764 158.854C-18.607 158.662 -17.6014 158.757 -16.6868 159.128C-15.7722 159.499 -14.9898 160.129 -14.4383 160.938C-13.8868 161.748 -13.5912 162.701 -13.5887 163.676C-13.5854 164.983 -14.109 166.239 -15.0444 167.166C-15.9797 168.093 -17.2502 168.616 -18.5762 168.619ZM-18.6261 148.895C-19.615 148.898 -20.5824 148.611 -21.4061 148.071C-22.2297 147.532 -22.8725 146.763 -23.2532 145.863C-23.6339 144.963 -23.7354 143.972 -23.5449 143.015C-23.3544 142.058 -22.8804 141.178 -22.1829 140.487C-21.4854 139.795 -20.5957 139.324 -19.6263 139.131C-18.6568 138.938 -17.6513 139.033 -16.7367 139.404C-15.8221 139.775 -15.0396 140.405 -14.4882 141.215C-13.9367 142.025 -13.6411 142.977 -13.6386 143.952C-13.6353 145.26 -14.1589 146.516 -15.0942 147.443C-16.0296 148.37 -17.3 148.892 -18.6261 148.895ZM-18.676 129.172C-19.6649 129.175 -20.6323 128.888 -21.4559 128.348C-22.2795 127.808 -22.9223 127.04 -23.3031 126.14C-23.6838 125.239 -23.7853 124.248 -23.5948 123.291C-23.4043 122.334 -22.9303 121.455 -22.2328 120.763C-21.5353 120.072 -20.6455 119.6 -19.6761 119.408C-18.7067 119.215 -17.7011 119.31 -16.7866 119.681C-15.872 120.052 -15.0895 120.682 -14.538 121.492C-13.9866 122.301 -13.6909 123.254 -13.6885 124.229C-13.6852 125.537 -14.2088 126.792 -15.1441 127.719C-16.0795 128.646 -17.3499 129.169 -18.676 129.172ZM-18.7259 109.449C-19.7148 109.451 -20.6822 109.164 -21.5058 108.625C-22.3294 108.085 -22.9722 107.316 -23.3529 106.416C-23.7336 105.516 -23.8352 104.525 -23.6447 103.568C-23.4542 102.611 -22.9802 101.731 -22.2827 101.04C-21.5851 100.349 -20.6954 99.8767 -19.726 99.6841C-18.7566 99.4915 -17.751 99.5866 -16.8364 99.9576C-15.9219 100.329 -15.1394 100.959 -14.5879 101.768C-14.0365 102.578 -13.7408 103.53 -13.7383 104.506C-13.735 105.813 -14.2586 107.069 -15.194 107.996C-16.1293 108.923 -17.3998 109.445 -18.7259 109.449ZM-18.7757 89.7253C-19.7646 89.7277 -20.7321 89.4409 -21.5557 88.9011C-22.3793 88.3613 -23.0221 87.5928 -23.4028 86.6927C-23.7835 85.7927 -23.885 84.8015 -23.6945 83.8445C-23.504 82.8875 -23.03 82.0078 -22.3325 81.3165C-21.635 80.6251 -20.7453 80.1533 -19.7759 79.9607C-18.8064 79.7681 -17.8009 79.8632 -16.8863 80.2342C-15.9717 80.6051 -15.1892 81.2352 -14.6378 82.0447C-14.0863 82.8543 -13.7907 83.8069 -13.7882 84.7821C-13.7849 86.0899 -14.3085 87.3453 -15.2439 88.2724C-16.1792 89.1994 -17.4496 89.722 -18.7757 89.7253ZM-18.8256 70.0018C-19.8145 70.0043 -20.7819 69.7175 -21.6055 69.1777C-22.4291 68.6379 -23.072 67.8694 -23.4527 66.9693C-23.8334 66.0692 -23.9349 65.0781 -23.7444 64.1211C-23.5539 63.1641 -23.0799 62.2844 -22.3824 61.593C-21.6849 60.9017 -20.7952 60.4299 -19.8257 60.2373C-18.8563 60.0447 -17.8507 60.1398 -16.9362 60.5108C-16.0216 60.8817 -15.2391 61.5118 -14.6877 62.3213C-14.1362 63.1309 -13.8405 64.0835 -13.8381 65.0587C-13.8348 66.3664 -14.3584 67.6219 -15.2937 68.5489C-16.2291 69.476 -17.4995 69.9986 -18.8256 70.0018ZM-18.8755 50.2784C-19.8644 50.2809 -20.8318 49.9941 -21.6554 49.4543C-22.479 48.9145 -23.1218 48.146 -23.5025 47.2459C-23.8833 46.3458 -23.9848 45.3547 -23.7943 44.3977C-23.6038 43.4407 -23.1298 42.561 -22.4323 41.8696C-21.7348 41.1783 -20.845 40.7065 -19.8756 40.5139C-18.9062 40.3212 -17.9006 40.4164 -16.986 40.7874C-16.0715 41.1583 -15.289 41.7884 -14.7375 42.5979C-14.1861 43.4074 -13.8904 44.3601 -13.8879 45.3353C-13.8846 46.643 -14.4082 47.8985 -15.3436 48.8255C-16.2789 49.7526 -17.5494 50.2752 -18.8755 50.2784ZM-18.9253 30.555C-19.9142 30.5575 -20.8817 30.2706 -21.7053 29.7309C-22.5289 29.1911 -23.1717 28.4226 -23.5524 27.5225C-23.9331 26.6224 -24.0346 25.6312 -23.8441 24.6743C-23.6536 23.7173 -23.1797 22.8375 -22.4821 22.1462C-21.7846 21.4549 -20.8949 20.9831 -19.9255 20.7905C-18.9561 20.5978 -17.9505 20.693 -17.0359 21.064C-16.1213 21.4349 -15.3388 22.065 -14.7874 22.8745C-14.2359 23.684 -13.9403 24.6367 -13.9378 25.6119C-13.9345 26.9196 -14.4581 28.1751 -15.3935 29.1021C-16.3288 30.0291 -17.5993 30.5518 -18.9253 30.555ZM-18.9752 10.8316C-19.9641 10.8341 -20.9315 10.5472 -21.7551 10.0075C-22.5788 9.46766 -23.2216 8.69915 -23.6023 7.79908C-23.983 6.89902 -24.0845 5.90783 -23.894 4.95086C-23.7035 3.9939 -23.2295 3.11413 -22.532 2.42282C-21.8345 1.73151 -20.9448 1.2597 -19.9753 1.06706C-19.0059 0.874414 -18.0003 0.969591 -17.0858 1.34055C-16.1712 1.71151 -15.3887 2.34158 -14.8373 3.15111C-14.2858 3.96063 -13.9902 4.91324 -13.9877 5.88847C-13.9844 7.19621 -14.508 8.45169 -15.4433 9.37871C-16.3787 10.3057 -17.6491 10.8284 -18.9752 10.8316ZM-38.3268 267.285C-39.3157 267.288 -40.2832 267.001 -41.1068 266.461C-41.9304 265.921 -42.5732 265.153 -42.9539 264.253C-43.3346 263.353 -43.4362 262.361 -43.2456 261.404C-43.0551 260.447 -42.5812 259.568 -41.8836 258.876C-41.1861 258.185 -40.2964 257.713 -39.327 257.521C-38.3576 257.328 -37.352 257.423 -36.4374 257.794C-35.5228 258.165 -34.7404 258.795 -34.1889 259.605C-33.6374 260.414 -33.3418 261.367 -33.3393 262.342C-33.336 263.65 -33.8596 264.905 -34.795 265.832C-35.7303 266.759 -37.0008 267.282 -38.3268 267.285ZM-38.3767 247.562C-39.3656 247.564 -40.333 247.277 -41.1567 246.738C-41.9803 246.198 -42.6231 245.429 -43.0038 244.529C-43.3845 243.629 -43.486 242.638 -43.2955 241.681C-43.105 240.724 -42.631 239.844 -41.9335 239.153C-41.236 238.462 -40.3463 237.99 -39.3769 237.797C-38.4074 237.605 -37.4019 237.7 -36.4873 238.071C-35.5727 238.442 -34.7902 239.072 -34.2388 239.881C-33.6873 240.691 -33.3917 241.643 -33.3892 242.619C-33.3859 243.926 -33.9095 245.182 -34.8448 246.109C-35.7802 247.036 -37.0506 247.558 -38.3767 247.562ZM-38.4266 227.838C-39.4155 227.841 -40.3829 227.554 -41.2065 227.014C-42.0301 226.474 -42.6729 225.706 -43.0537 224.806C-43.4344 223.906 -43.5359 222.915 -43.3454 221.958C-43.1549 221.001 -42.6809 220.121 -41.9834 219.43C-41.2859 218.738 -40.3961 218.266 -39.4267 218.074C-38.4573 217.881 -37.4517 217.976 -36.5372 218.347C-35.6226 218.718 -34.8401 219.348 -34.2886 220.158C-33.7372 220.967 -33.4415 221.92 -33.4391 222.895C-33.4358 224.203 -33.9594 225.458 -34.8947 226.385C-35.83 227.312 -37.1005 227.835 -38.4266 227.838ZM-38.4764 208.115C-39.4654 208.117 -40.4328 207.831 -41.2564 207.291C-42.08 206.751 -42.7228 205.982 -43.1035 205.082C-43.4842 204.182 -43.5858 203.191 -43.3953 202.234C-43.2048 201.277 -42.7308 200.397 -42.0333 199.706C-41.3357 199.015 -40.446 198.543 -39.4766 198.35C-38.5072 198.158 -37.5016 198.253 -36.587 198.624C-35.6724 198.995 -34.89 199.625 -34.3385 200.434C-33.787 201.244 -33.4914 202.197 -33.4889 203.172C-33.4856 204.479 -34.0092 205.735 -34.9446 206.662C-35.8799 207.589 -37.1504 208.112 -38.4764 208.115ZM-38.5263 188.391C-39.5152 188.394 -40.4826 188.107 -41.3063 187.567C-42.1299 187.028 -42.7727 186.259 -43.1534 185.359C-43.5341 184.459 -43.6356 183.468 -43.4451 182.511C-43.2546 181.554 -42.7806 180.674 -42.0831 179.983C-41.3856 179.291 -40.4959 178.82 -39.5265 178.627C-38.557 178.434 -37.5515 178.529 -36.6369 178.9C-35.7223 179.271 -34.9398 179.901 -34.3884 180.711C-33.8369 181.521 -33.5413 182.473 -33.5388 183.448C-33.5355 184.756 -34.0591 186.012 -34.9944 186.939C-35.9298 187.866 -37.2002 188.388 -38.5263 188.391ZM-38.5762 168.668C-39.5651 168.671 -40.5325 168.384 -41.3561 167.844C-42.1797 167.304 -42.8225 166.536 -43.2033 165.636C-43.584 164.735 -43.6855 163.744 -43.495 162.787C-43.3045 161.83 -42.8305 160.951 -42.133 160.259C-41.4355 159.568 -40.5457 159.096 -39.5763 158.904C-38.6069 158.711 -37.6013 158.806 -36.6868 159.177C-35.7722 159.548 -34.9897 160.178 -34.4382 160.988C-33.8868 161.797 -33.5911 162.75 -33.5887 163.725C-33.5854 165.033 -34.109 166.288 -35.0443 167.215C-35.9797 168.142 -37.2501 168.665 -38.5762 168.668ZM-38.6261 148.945C-39.615 148.947 -40.5824 148.66 -41.406 148.121C-42.2296 147.581 -42.8724 146.812 -43.2531 145.912C-43.6338 145.012 -43.7354 144.021 -43.5449 143.064C-43.3544 142.107 -42.8804 141.227 -42.1829 140.536C-41.4853 139.845 -40.5956 139.373 -39.6262 139.18C-38.6568 138.987 -37.6512 139.083 -36.7366 139.454C-35.8221 139.825 -35.0396 140.455 -34.4881 141.264C-33.9367 142.074 -33.641 143.026 -33.6385 144.002C-33.6352 145.309 -34.1588 146.565 -35.0942 147.492C-36.0295 148.419 -37.3 148.941 -38.6261 148.945ZM-38.6759 129.221C-39.6648 129.224 -40.6323 128.937 -41.4559 128.397C-42.2795 127.857 -42.9223 127.089 -43.303 126.189C-43.6837 125.289 -43.7852 124.297 -43.5947 123.341C-43.4042 122.384 -42.9302 121.504 -42.2327 120.812C-41.5352 120.121 -40.6455 119.649 -39.6761 119.457C-38.7066 119.264 -37.7011 119.359 -36.7865 119.73C-35.8719 120.101 -35.0894 120.731 -34.538 121.541C-33.9865 122.35 -33.6909 123.303 -33.6884 124.278C-33.6851 125.586 -34.2087 126.841 -35.1441 127.768C-36.0794 128.695 -37.3498 129.218 -38.6759 129.221ZM-38.7258 109.498C-39.7147 109.5 -40.6821 109.213 -41.5057 108.674C-42.3293 108.134 -42.9722 107.365 -43.3529 106.465C-43.7336 105.565 -43.8351 104.574 -43.6446 103.617C-43.4541 102.66 -42.9801 101.78 -42.2826 101.089C-41.5851 100.398 -40.6954 99.9259 -39.7259 99.7333C-38.7565 99.5406 -37.7509 99.6358 -36.8364 100.007C-35.9218 100.378 -35.1393 101.008 -34.5879 101.817C-34.0364 102.627 -33.7407 103.579 -33.7383 104.555C-33.735 105.862 -34.2586 107.118 -35.1939 108.045C-36.1293 108.972 -37.3997 109.495 -38.7258 109.498ZM-38.7757 89.7744C-39.7646 89.7769 -40.732 89.4901 -41.5556 88.9503C-42.3792 88.4105 -43.022 87.642 -43.4027 86.7419C-43.7835 85.8418 -43.885 84.8506 -43.6945 83.8937C-43.504 82.9367 -43.03 82.057 -42.3325 81.3656C-41.635 80.6743 -40.7452 80.2025 -39.7758 80.0099C-38.8064 79.8172 -37.8008 79.9124 -36.8862 80.2834C-35.9717 80.6543 -35.1892 81.2844 -34.6377 82.0939C-34.0863 82.9034 -33.7906 83.8561 -33.7881 84.8313C-33.7848 86.139 -34.3085 87.3945 -35.2438 88.3215C-36.1791 89.2486 -37.4496 89.7712 -38.7757 89.7744ZM-38.8255 70.051C-39.8144 70.0535 -40.7819 69.7666 -41.6055 69.2269C-42.4291 68.6871 -43.0719 67.9186 -43.4526 67.0185C-43.8333 66.1184 -43.9348 65.1272 -43.7443 64.1703C-43.5538 63.2133 -43.0799 62.3335 -42.3823 61.6422C-41.6848 60.9509 -40.7951 60.4791 -39.8257 60.2865C-38.8563 60.0938 -37.8507 60.189 -36.9361 60.56C-36.0215 60.9309 -35.239 61.561 -34.6876 62.3705C-34.1361 63.18 -33.8405 64.1326 -33.838 65.1079C-33.8347 66.4156 -34.3583 67.6711 -35.2937 68.5981C-36.229 69.5251 -37.4995 70.0478 -38.8255 70.051ZM-38.8754 50.3276C-39.8643 50.3301 -40.8317 50.0432 -41.6553 49.5035C-42.479 48.9637 -43.1218 48.1951 -43.5025 47.2951C-43.8832 46.395 -43.9847 45.4038 -43.7942 44.4469C-43.6037 43.4899 -43.1297 42.6101 -42.4322 41.9188C-41.7347 41.2275 -40.845 40.7557 -39.8755 40.5631C-38.9061 40.3704 -37.9005 40.4656 -36.986 40.8365C-36.0714 41.2075 -35.2889 41.8376 -34.7375 42.6471C-34.186 43.4566 -33.8904 44.4092 -33.8879 45.3845C-33.8846 46.6922 -34.4082 47.9477 -35.3435 48.8747C-36.2789 49.8017 -37.5493 50.3244 -38.8754 50.3276ZM-38.9253 30.6042C-39.9142 30.6066 -40.8816 30.3198 -41.7052 29.78C-42.5288 29.2403 -43.1716 28.4717 -43.5524 27.5717C-43.9331 26.6716 -44.0346 25.6804 -43.8441 24.7235C-43.6536 23.7665 -43.1796 22.8867 -42.4821 22.1954C-41.7846 21.5041 -40.8948 21.0323 -39.9254 20.8396C-38.956 20.647 -37.9504 20.7422 -37.0358 21.1131C-36.1213 21.4841 -35.3388 22.1142 -34.7873 22.9237C-34.2359 23.7332 -33.9402 24.6858 -33.9378 25.6611C-33.9344 26.9688 -34.4581 28.2243 -35.3934 29.1513C-36.3287 30.0783 -37.5992 30.6009 -38.9253 30.6042ZM-38.9751 10.8808C-39.964 10.8832 -40.9315 10.5964 -41.7551 10.0566C-42.5787 9.51684 -43.2215 8.74833 -43.6022 7.84826C-43.9829 6.9482 -44.0845 5.95701 -43.894 5.00004C-43.7034 4.04308 -43.2295 3.16331 -42.5319 2.472C-41.8344 1.78069 -40.9447 1.30888 -39.9753 1.11624C-39.0059 0.923594 -38.0003 1.01877 -37.0857 1.38973C-36.1711 1.76069 -35.3887 2.39076 -34.8372 3.20029C-34.2857 4.00981 -33.9901 4.96242 -33.9876 5.93765C-33.9843 7.24539 -34.5079 8.50087 -35.4433 9.42789C-36.3786 10.3549 -37.6491 10.8775 -38.9751 10.8808ZM-58.3268 267.334C-59.3157 267.337 -60.2831 267.05 -61.1067 266.51C-61.9303 265.97 -62.5731 265.202 -62.9539 264.302C-63.3346 263.402 -63.4361 262.411 -63.2456 261.454C-63.0551 260.497 -62.5811 259.617 -61.8836 258.926C-61.1861 258.234 -60.2963 257.762 -59.3269 257.57C-58.3575 257.377 -57.3519 257.472 -56.4373 257.843C-55.5228 258.214 -54.7403 258.844 -54.1888 259.654C-53.6374 260.463 -53.3417 261.416 -53.3393 262.391C-53.336 263.699 -53.8596 264.954 -54.7949 265.881C-55.7302 266.808 -57.0007 267.331 -58.3268 267.334ZM-58.3766 247.611C-59.3655 247.613 -60.333 247.327 -61.1566 246.787C-61.9802 246.247 -62.623 245.478 -63.0037 244.578C-63.3844 243.678 -63.486 242.687 -63.2955 241.73C-63.1049 240.773 -62.631 239.893 -61.9335 239.202C-61.2359 238.511 -60.3462 238.039 -59.3768 237.846C-58.4074 237.654 -57.4018 237.749 -56.4872 238.12C-55.5726 238.491 -54.7902 239.121 -54.2387 239.93C-53.6872 240.74 -53.3916 241.693 -53.3891 242.668C-53.3858 243.975 -53.9094 245.231 -54.8448 246.158C-55.7801 247.085 -57.0506 247.608 -58.3766 247.611ZM-58.4265 227.887C-59.4154 227.89 -60.3828 227.603 -61.2065 227.063C-62.0301 226.524 -62.6729 225.755 -63.0536 224.855C-63.4343 223.955 -63.5358 222.964 -63.3453 222.007C-63.1548 221.05 -62.6808 220.17 -61.9833 219.479C-61.2858 218.787 -60.3961 218.316 -59.4267 218.123C-58.4572 217.93 -57.4517 218.025 -56.5371 218.396C-55.6225 218.767 -54.84 219.397 -54.2886 220.207C-53.7371 221.017 -53.4415 221.969 -53.439 222.944C-53.4357 224.252 -53.9593 225.508 -54.8946 226.435C-55.83 227.362 -57.1004 227.884 -58.4265 227.887ZM-58.4764 208.164C-59.4653 208.167 -60.4327 207.88 -61.2563 207.34C-62.0799 206.8 -62.7227 206.032 -63.1035 205.132C-63.4842 204.231 -63.5857 203.24 -63.3952 202.283C-63.2047 201.326 -62.7307 200.447 -62.0332 199.755C-61.3357 199.064 -60.4459 198.592 -59.4765 198.4C-58.5071 198.207 -57.5015 198.302 -56.587 198.673C-55.6724 199.044 -54.8899 199.674 -54.3384 200.484C-53.787 201.293 -53.4913 202.246 -53.4889 203.221C-53.4856 204.529 -54.0092 205.784 -54.9445 206.711C-55.8799 207.638 -57.1503 208.161 -58.4764 208.164ZM-58.5263 188.441C-59.5152 188.443 -60.4826 188.156 -61.3062 187.617C-62.1298 187.077 -62.7726 186.308 -63.1533 185.408C-63.534 184.508 -63.6356 183.517 -63.4451 182.56C-63.2546 181.603 -62.7806 180.723 -62.0831 180.032C-61.3855 179.341 -60.4958 178.869 -59.5264 178.676C-58.557 178.483 -57.5514 178.579 -56.6368 178.95C-55.7223 179.321 -54.9398 179.951 -54.3883 180.76C-53.8369 181.57 -53.5412 182.522 -53.5387 183.498C-53.5354 184.805 -54.059 186.061 -54.9944 186.988C-55.9297 187.915 -57.2002 188.437 -58.5263 188.441ZM-58.5761 168.717C-59.565 168.72 -60.5325 168.433 -61.3561 167.893C-62.1797 167.353 -62.8225 166.585 -63.2032 165.685C-63.5839 164.785 -63.6854 163.793 -63.4949 162.837C-63.3044 161.88 -62.8304 161 -62.1329 160.308C-61.4354 159.617 -60.5457 159.145 -59.5763 158.953C-58.6068 158.76 -57.6013 158.855 -56.6867 159.226C-55.7721 159.597 -54.9896 160.227 -54.4382 161.037C-53.8867 161.846 -53.5911 162.799 -53.5886 163.774C-53.5853 165.082 -54.1089 166.337 -55.0443 167.264C-55.9796 168.191 -57.25 168.714 -58.5761 168.717ZM-58.626 148.994C-59.6149 148.996 -60.5823 148.709 -61.4059 148.17C-62.2295 147.63 -62.8724 146.861 -63.2531 145.961C-63.6338 145.061 -63.7353 144.07 -63.5448 143.113C-63.3543 142.156 -62.8803 141.276 -62.1828 140.585C-61.4853 139.894 -60.5956 139.422 -59.6261 139.229C-58.6567 139.037 -57.6511 139.132 -56.7366 139.503C-55.822 139.874 -55.0395 140.504 -54.4881 141.313C-53.9366 142.123 -53.6409 143.075 -53.6385 144.051C-53.6352 145.358 -54.1588 146.614 -55.0941 147.541C-56.0295 148.468 -57.2999 148.991 -58.626 148.994ZM-58.6759 129.27C-59.6648 129.273 -60.6322 128.986 -61.4558 128.446C-62.2794 127.906 -62.9222 127.138 -63.3029 126.238C-63.6837 125.338 -63.7852 124.347 -63.5947 123.39C-63.4042 122.433 -62.9302 121.553 -62.2327 120.862C-61.5352 120.17 -60.6454 119.699 -59.676 119.506C-58.7066 119.313 -57.701 119.408 -56.7864 119.779C-55.8719 120.15 -55.0894 120.78 -54.5379 121.59C-53.9865 122.399 -53.6908 123.352 -53.6883 124.327C-53.685 125.635 -54.2086 126.891 -55.144 127.818C-56.0793 128.745 -57.3498 129.267 -58.6759 129.27ZM-58.7257 109.547C-59.7146 109.549 -60.6821 109.263 -61.5057 108.723C-62.3293 108.183 -62.9721 107.415 -63.3528 106.514C-63.7335 105.614 -63.835 104.623 -63.6445 103.666C-63.454 102.709 -62.9801 101.83 -62.2825 101.138C-61.585 100.447 -60.6953 99.9751 -59.7259 99.7825C-58.7565 99.5898 -57.7509 99.685 -56.8363 100.056C-55.9217 100.427 -55.1392 101.057 -54.5878 101.867C-54.0363 102.676 -53.7407 103.629 -53.7382 104.604C-53.7349 105.912 -54.2585 107.167 -55.1939 108.094C-56.1292 109.021 -57.3997 109.544 -58.7257 109.547ZM-58.7756 89.8236C-59.7645 89.8261 -60.7319 89.5392 -61.5555 88.9995C-62.3792 88.4597 -63.022 87.6911 -63.4027 86.7911C-63.7834 85.891 -63.8849 84.8998 -63.6944 83.9429C-63.5039 82.9859 -63.0299 82.1061 -62.3324 81.4148C-61.6349 80.7235 -60.7452 80.2517 -59.7757 80.0591C-58.8063 79.8664 -57.8007 79.9616 -56.8862 80.3325C-55.9716 80.7035 -55.1891 81.3336 -54.6377 82.1431C-54.0862 82.9526 -53.7905 83.9052 -53.7881 84.8805C-53.7848 86.1882 -54.3084 87.4437 -55.2437 88.3707C-56.1791 89.2977 -57.4495 89.8204 -58.7756 89.8236ZM-58.8255 70.1002C-59.8144 70.1026 -60.7818 69.8158 -61.6054 69.276C-62.429 68.7363 -63.0718 67.9677 -63.4525 67.0677C-63.8333 66.1676 -63.9348 65.1764 -63.7443 64.2195C-63.5538 63.2625 -63.0798 62.3827 -62.3823 61.6914C-61.6848 61.0001 -60.795 60.5283 -59.8256 60.3357C-58.8562 60.143 -57.8506 60.2382 -56.936 60.6091C-56.0215 60.9801 -55.239 61.6102 -54.6875 62.4197C-54.1361 63.2292 -53.8404 64.1818 -53.838 65.1571C-53.8346 66.4648 -54.3583 67.7203 -55.2936 68.6473C-56.2289 69.5743 -57.4994 70.0969 -58.8255 70.1002ZM-58.8753 50.3768C-59.8642 50.3792 -60.8317 50.0924 -61.6553 49.5526C-62.4789 49.0128 -63.1217 48.2443 -63.5024 47.3443C-63.8831 46.4442 -63.9847 45.453 -63.7942 44.496C-63.6036 43.5391 -63.1297 42.6593 -62.4321 41.968C-61.7346 41.2767 -60.8449 40.8049 -59.8755 40.6122C-58.9061 40.4196 -57.9005 40.5148 -56.9859 40.8857C-56.0713 41.2567 -55.2889 41.8868 -54.7374 42.6963C-54.1859 43.5058 -53.8903 44.4584 -53.8878 45.4337C-53.8845 46.7414 -54.4081 47.9969 -55.3435 48.9239C-56.2788 49.8509 -57.5493 50.3735 -58.8753 50.3768ZM-58.9252 30.6534C-59.9141 30.6558 -60.8815 30.369 -61.7052 29.8292C-62.5288 29.2894 -63.1716 28.5209 -63.5523 27.6209C-63.933 26.7208 -64.0345 25.7296 -63.844 24.7726C-63.6535 23.8157 -63.1795 22.9359 -62.482 22.2446C-61.7845 21.5533 -60.8948 21.0815 -59.9254 20.8888C-58.9559 20.6962 -57.9504 20.7914 -57.0358 21.1623C-56.1212 21.5333 -55.3387 22.1634 -54.7873 22.9729C-54.2358 23.7824 -53.9402 24.735 -53.9377 25.7102C-53.9344 27.018 -54.458 28.2735 -55.3933 29.2005C-56.3287 30.1275 -57.5991 30.6501 -58.9252 30.6534ZM-58.9751 10.93C-59.964 10.9324 -60.9314 10.6456 -61.755 10.1058C-62.5786 9.56602 -63.2214 8.79751 -63.6022 7.89744C-63.9829 6.99738 -64.0844 6.00619 -63.8939 5.04922C-63.7034 4.09226 -63.2294 3.21249 -62.5319 2.52118C-61.8344 1.82987 -60.9446 1.35806 -59.9752 1.16542C-59.0058 0.972774 -58.0002 1.06795 -57.0857 1.43891C-56.1711 1.80987 -55.3886 2.43994 -54.8371 3.24947C-54.2857 4.05899 -53.99 5.0116 -53.9876 5.98683C-53.9843 7.29457 -54.5079 8.55005 -55.4432 9.47707C-56.3785 10.4041 -57.649 10.9267 -58.9751 10.93ZM61.6479 257.178C62.6368 257.175 63.6042 257.462 64.4279 258.002C65.2515 258.541 65.8943 259.31 66.275 260.21C66.6557 261.11 66.7572 262.101 66.5667 263.058C66.3762 264.015 65.9022 264.895 65.2047 265.586C64.5072 266.278 63.6175 266.749 62.6481 266.942C61.6786 267.135 60.6731 267.04 59.7585 266.669C58.8439 266.298 58.0614 265.668 57.51 264.858C56.9585 264.049 56.6629 263.096 56.6604 262.121C56.6571 260.813 57.1807 259.557 58.116 258.63C59.0514 257.703 60.3218 257.181 61.6479 257.178ZM141.673 266.843C140.684 266.845 139.716 266.558 138.893 266.018C138.069 265.479 137.426 264.71 137.046 263.81C136.665 262.91 136.563 261.919 136.754 260.962C136.944 260.005 137.418 259.125 138.116 258.434C138.813 257.742 139.703 257.271 140.672 257.078C141.642 256.885 142.647 256.98 143.562 257.351C144.477 257.722 145.259 258.352 145.811 259.162C146.362 259.972 146.658 260.924 146.66 261.899C146.663 263.207 146.14 264.463 145.204 265.39C144.269 266.317 142.999 266.839 141.673 266.843ZM141.623 247.119C140.634 247.122 139.666 246.835 138.843 246.295C138.019 245.755 137.376 244.987 136.996 244.087C136.615 243.187 136.513 242.195 136.704 241.238C136.894 240.281 137.368 239.402 138.066 238.71C138.763 238.019 139.653 237.547 140.623 237.355C141.592 237.162 142.598 237.257 143.512 237.628C144.427 237.999 145.209 238.629 145.761 239.439C146.312 240.248 146.608 241.201 146.61 242.176C146.614 243.484 146.09 244.739 145.155 245.666C144.219 246.593 142.949 247.116 141.623 247.119ZM141.573 227.396C140.584 227.398 139.617 227.111 138.793 226.572C137.969 226.032 137.327 225.263 136.946 224.363C136.565 223.463 136.464 222.472 136.654 221.515C136.845 220.558 137.319 219.678 138.016 218.987C138.714 218.296 139.603 217.824 140.573 217.631C141.542 217.438 142.548 217.534 143.462 217.905C144.377 218.276 145.159 218.906 145.711 219.715C146.262 220.525 146.558 221.477 146.56 222.453C146.564 223.76 146.04 225.016 145.105 225.943C144.169 226.87 142.899 227.392 141.573 227.396ZM141.523 207.672C140.534 207.675 139.567 207.388 138.743 206.848C137.919 206.308 137.277 205.54 136.896 204.64C136.515 203.74 136.414 202.748 136.604 201.792C136.795 200.835 137.269 199.955 137.966 199.263C138.664 198.572 139.553 198.1 140.523 197.908C141.492 197.715 142.498 197.81 143.412 198.181C144.327 198.552 145.109 199.182 145.661 199.992C146.212 200.801 146.508 201.754 146.511 202.729C146.514 204.037 145.99 205.292 145.055 206.219C144.12 207.146 142.849 207.669 141.523 207.672ZM141.473 187.949C140.484 187.951 139.517 187.664 138.693 187.125C137.87 186.585 137.227 185.816 136.846 184.916C136.465 184.016 136.364 183.025 136.554 182.068C136.745 181.111 137.219 180.231 137.916 179.54C138.614 178.849 139.504 178.377 140.473 178.184C141.442 177.992 142.448 178.087 143.363 178.458C144.277 178.829 145.06 179.459 145.611 180.268C146.163 181.078 146.458 182.03 146.461 183.006C146.464 184.313 145.94 185.569 145.005 186.496C144.07 187.423 142.799 187.946 141.473 187.949ZM141.423 168.225C140.434 168.228 139.467 167.941 138.643 167.401C137.82 166.862 137.177 166.093 136.796 165.193C136.415 164.293 136.314 163.302 136.504 162.345C136.695 161.388 137.169 160.508 137.866 159.817C138.564 159.125 139.454 158.654 140.423 158.461C141.393 158.268 142.398 158.363 143.313 158.734C144.227 159.105 145.01 159.735 145.561 160.545C146.113 161.354 146.408 162.307 146.411 163.282C146.414 164.59 145.89 165.846 144.955 166.773C144.02 167.7 142.749 168.222 141.423 168.225ZM141.373 148.502C140.384 148.504 139.417 148.218 138.593 147.678C137.77 147.138 137.127 146.37 136.746 145.47C136.366 144.569 136.264 143.578 136.455 142.621C136.645 141.664 137.119 140.785 137.817 140.093C138.514 139.402 139.404 138.93 140.373 138.737C141.343 138.545 142.348 138.64 143.263 139.011C144.177 139.382 144.96 140.012 145.511 140.822C146.063 141.631 146.358 142.584 146.361 143.559C146.364 144.867 145.841 146.122 144.905 147.049C143.97 147.976 142.699 148.499 141.373 148.502ZM141.324 128.779C140.335 128.781 139.367 128.494 138.544 127.954C137.72 127.415 137.077 126.646 136.696 125.746C136.316 124.846 136.214 123.855 136.405 122.898C136.595 121.941 137.069 121.061 137.767 120.37C138.464 119.679 139.354 119.207 140.323 119.014C141.293 118.821 142.298 118.917 143.213 119.288C144.128 119.659 144.91 120.289 145.461 121.098C146.013 121.908 146.309 122.86 146.311 123.835C146.314 125.143 145.791 126.399 144.855 127.326C143.92 128.253 142.65 128.775 141.324 128.779ZM141.274 109.055C140.285 109.058 139.317 108.771 138.494 108.231C137.67 107.691 137.027 106.923 136.647 106.023C136.266 105.123 136.164 104.131 136.355 103.174C136.545 102.218 137.019 101.338 137.717 100.646C138.414 99.9551 139.304 99.4833 140.274 99.2907C141.243 99.098 142.249 99.1932 143.163 99.5642C144.078 99.9351 144.86 100.565 145.412 101.375C145.963 102.184 146.259 103.137 146.261 104.112C146.264 105.42 145.741 106.675 144.806 107.602C143.87 108.529 142.6 109.052 141.274 109.055ZM141.224 89.3318C140.235 89.3343 139.267 89.0474 138.444 88.5077C137.62 87.9679 136.977 87.1993 136.597 86.2993C136.216 85.3992 136.114 84.408 136.305 83.4511C136.495 82.4941 136.969 81.6143 137.667 80.923C138.364 80.2317 139.254 79.7599 140.224 79.5673C141.193 79.3746 142.199 79.4698 143.113 79.8407C144.028 80.2117 144.81 80.8418 145.362 81.6513C145.913 82.4608 146.209 83.4134 146.211 84.3887C146.215 85.6964 145.691 86.9519 144.756 87.8789C143.82 88.8059 142.55 89.3286 141.224 89.3318ZM141.174 69.6084C140.185 69.6108 139.218 69.324 138.394 68.7842C137.57 68.2445 136.928 67.4759 136.547 66.5759C136.166 65.6758 136.065 64.6846 136.255 63.7277C136.446 62.7707 136.92 61.8909 137.617 61.1996C138.315 60.5083 139.204 60.0365 140.174 59.8439C141.143 59.6512 142.149 59.7464 143.063 60.1173C143.978 60.4883 144.76 61.1184 145.312 61.9279C145.863 62.7374 146.159 63.69 146.161 64.6653C146.165 65.973 145.641 67.2285 144.706 68.1555C143.77 69.0825 142.5 69.6051 141.174 69.6084ZM141.124 49.885C140.135 49.8874 139.168 49.6006 138.344 49.0608C137.52 48.521 136.878 47.7525 136.497 46.8525C136.116 45.9524 136.015 44.9612 136.205 44.0042C136.396 43.0473 136.87 42.1675 137.567 41.4762C138.265 40.7849 139.154 40.3131 140.124 40.1204C141.093 39.9278 142.099 40.023 143.013 40.3939C143.928 40.7649 144.711 41.395 145.262 42.2045C145.813 43.014 146.109 43.9666 146.112 44.9419C146.115 46.2496 145.591 47.5051 144.656 48.4321C143.721 49.3591 142.45 49.8817 141.124 49.885ZM141.074 30.1616C140.085 30.164 139.118 29.8772 138.294 29.3374C137.471 28.7976 136.828 28.0291 136.447 27.1291C136.066 26.229 135.965 25.2378 136.155 24.2808C136.346 23.3239 136.82 22.4441 137.517 21.7528C138.215 21.0615 139.105 20.5897 140.074 20.397C141.043 20.2044 142.049 20.2996 142.964 20.6705C143.878 21.0415 144.661 21.6716 145.212 22.4811C145.764 23.2906 146.059 24.2432 146.062 25.2184C146.065 26.5262 145.541 27.7817 144.606 28.7087C143.671 29.6357 142.4 30.1583 141.074 30.1616ZM141.024 10.4382C140.035 10.4406 139.068 10.1538 138.244 9.61401C137.421 9.07422 136.778 8.30571 136.397 7.40564C136.017 6.50558 135.915 5.51439 136.105 4.55742C136.296 3.60046 136.77 2.72069 137.467 2.02938C138.165 1.33807 139.055 0.86626 140.024 0.673617C140.994 0.480974 141.999 0.576151 142.914 0.947109C143.828 1.31807 144.611 1.94814 145.162 2.75767C145.714 3.56719 146.009 4.5198 146.012 5.49503C146.015 6.80277 145.492 8.05825 144.556 8.98527C143.621 9.91229 142.35 10.4349 141.024 10.4382ZM121.673 266.892C120.684 266.894 119.716 266.607 118.893 266.068C118.069 265.528 117.426 264.759 117.046 263.859C116.665 262.959 116.563 261.968 116.754 261.011C116.944 260.054 117.418 259.174 118.116 258.483C118.813 257.792 119.703 257.32 120.673 257.127C121.642 256.934 122.648 257.03 123.562 257.401C124.477 257.772 125.259 258.402 125.811 259.211C126.362 260.021 126.658 260.973 126.66 261.949C126.663 263.256 126.14 264.512 125.205 265.439C124.269 266.366 122.999 266.888 121.673 266.892ZM121.623 247.168C120.634 247.171 119.666 246.884 118.843 246.344C118.019 245.804 117.376 245.036 116.996 244.136C116.615 243.236 116.513 242.244 116.704 241.288C116.894 240.331 117.368 239.451 118.066 238.759C118.763 238.068 119.653 237.596 120.623 237.404C121.592 237.211 122.598 237.306 123.512 237.677C124.427 238.048 125.209 238.678 125.761 239.488C126.312 240.297 126.608 241.25 126.61 242.225C126.614 243.533 126.09 244.788 125.155 245.715C124.219 246.642 122.949 247.165 121.623 247.168ZM121.573 227.445C120.584 227.447 119.617 227.16 118.793 226.621C117.969 226.081 117.327 225.312 116.946 224.412C116.565 223.512 116.464 222.521 116.654 221.564C116.845 220.607 117.319 219.727 118.016 219.036C118.714 218.345 119.603 217.873 120.573 217.68C121.542 217.488 122.548 217.583 123.462 217.954C124.377 218.325 125.159 218.955 125.711 219.764C126.262 220.574 126.558 221.526 126.56 222.502C126.564 223.809 126.04 225.065 125.105 225.992C124.169 226.919 122.899 227.442 121.573 227.445ZM121.523 207.721C120.534 207.724 119.567 207.437 118.743 206.897C117.92 206.358 117.277 205.589 116.896 204.689C116.515 203.789 116.414 202.798 116.604 201.841C116.795 200.884 117.269 200.004 117.966 199.313C118.664 198.621 119.554 198.15 120.523 197.957C121.492 197.764 122.498 197.859 123.412 198.23C124.327 198.601 125.11 199.231 125.661 200.041C126.212 200.85 126.508 201.803 126.511 202.778C126.514 204.086 125.99 205.342 125.055 206.269C124.12 207.196 122.849 207.718 121.523 207.721ZM121.473 187.998C120.484 188 119.517 187.714 118.693 187.174C117.87 186.634 117.227 185.866 116.846 184.966C116.465 184.065 116.364 183.074 116.554 182.117C116.745 181.16 117.219 180.281 117.916 179.589C118.614 178.898 119.504 178.426 120.473 178.233C121.442 178.041 122.448 178.136 123.363 178.507C124.277 178.878 125.06 179.508 125.611 180.318C126.163 181.127 126.458 182.08 126.461 183.055C126.464 184.363 125.94 185.618 125.005 186.545C124.07 187.472 122.799 187.995 121.473 187.998ZM121.423 168.275C120.434 168.277 119.467 167.99 118.643 167.45C117.82 166.911 117.177 166.142 116.796 165.242C116.416 164.342 116.314 163.351 116.504 162.394C116.695 161.437 117.169 160.557 117.867 159.866C118.564 159.175 119.454 158.703 120.423 158.51C121.393 158.317 122.398 158.413 123.313 158.784C124.227 159.155 125.01 159.785 125.561 160.594C126.113 161.404 126.408 162.356 126.411 163.331C126.414 164.639 125.891 165.895 124.955 166.822C124.02 167.749 122.749 168.271 121.423 168.275ZM121.373 148.551C120.385 148.554 119.417 148.267 118.594 147.727C117.77 147.187 117.127 146.419 116.746 145.519C116.366 144.619 116.264 143.627 116.455 142.67C116.645 141.714 117.119 140.834 117.817 140.142C118.514 139.451 119.404 138.979 120.373 138.787C121.343 138.594 122.348 138.689 123.263 139.06C124.177 139.431 124.96 140.061 125.511 140.871C126.063 141.68 126.358 142.633 126.361 143.608C126.364 144.916 125.841 146.171 124.905 147.098C123.97 148.025 122.7 148.548 121.373 148.551ZM121.324 128.828C120.335 128.83 119.367 128.543 118.544 128.004C117.72 127.464 117.077 126.695 116.696 125.795C116.316 124.895 116.214 123.904 116.405 122.947C116.595 121.99 117.069 121.11 117.767 120.419C118.464 119.728 119.354 119.256 120.323 119.063C121.293 118.871 122.298 118.966 123.213 119.337C124.128 119.708 124.91 120.338 125.462 121.147C126.013 121.957 126.309 122.909 126.311 123.885C126.314 125.192 125.791 126.448 124.855 127.375C123.92 128.302 122.65 128.825 121.324 128.828ZM121.274 109.104C120.285 109.107 119.317 108.82 118.494 108.28C117.67 107.74 117.027 106.972 116.647 106.072C116.266 105.172 116.164 104.181 116.355 103.224C116.545 102.267 117.019 101.387 117.717 100.696C118.414 100.004 119.304 99.5325 120.274 99.3398C121.243 99.1472 122.249 99.2424 123.163 99.6133C124.078 99.9843 124.86 100.614 125.412 101.424C125.963 102.233 126.259 103.186 126.261 104.161C126.265 105.469 125.741 106.724 124.806 107.652C123.87 108.579 122.6 109.101 121.274 109.104ZM121.224 89.381C120.235 89.3834 119.268 89.0966 118.444 88.5568C117.62 88.017 116.977 87.2485 116.597 86.3485C116.216 85.4484 116.115 84.4572 116.305 83.5002C116.496 82.5433 116.97 81.6635 117.667 80.9722C118.365 80.2809 119.254 79.8091 120.224 79.6164C121.193 79.4238 122.199 79.519 123.113 79.8899C124.028 80.2609 124.81 80.891 125.362 81.7005C125.913 82.51 126.209 83.4626 126.211 84.4379C126.215 85.7456 125.691 87.0011 124.756 87.9281C123.82 88.8551 122.55 89.3777 121.224 89.381ZM121.174 69.6576C120.185 69.66 119.218 69.3732 118.394 68.8334C117.57 68.2936 116.928 67.5251 116.547 66.625C116.166 65.725 116.065 64.7338 116.255 63.7768C116.446 62.8199 116.92 61.9401 117.617 61.2488C118.315 60.5575 119.204 60.0857 120.174 59.893C121.143 59.7004 122.149 59.7956 123.063 60.1665C123.978 60.5375 124.76 61.1676 125.312 61.9771C125.863 62.7866 126.159 63.7392 126.161 64.7144C126.165 66.0222 125.641 67.2777 124.706 68.2047C123.77 69.1317 122.5 69.6543 121.174 69.6576ZM121.124 49.9342C120.135 49.9366 119.168 49.6498 118.344 49.11C117.521 48.5702 116.878 47.8017 116.497 46.9016C116.116 46.0016 116.015 45.0104 116.205 44.0534C116.396 43.0965 116.87 42.2167 117.567 41.5254C118.265 40.8341 119.155 40.3623 120.124 40.1696C121.093 39.977 122.099 40.0721 123.014 40.4431C123.928 40.8141 124.711 41.4441 125.262 42.2537C125.813 43.0632 126.109 44.0158 126.112 44.991C126.115 46.2988 125.591 47.5543 124.656 48.4813C123.721 49.4083 122.45 49.9309 121.124 49.9342ZM121.074 30.2108C120.085 30.2132 119.118 29.9264 118.294 29.3866C117.471 28.8468 116.828 28.0783 116.447 27.1782C116.066 26.2782 115.965 25.287 116.155 24.33C116.346 23.373 116.82 22.4933 117.517 21.802C118.215 21.1107 119.105 20.6389 120.074 20.4462C121.044 20.2536 122.049 20.3487 122.964 20.7197C123.878 21.0907 124.661 21.7207 125.212 22.5303C125.764 23.3398 126.059 24.2924 126.062 25.2676C126.065 26.5754 125.541 27.8308 124.606 28.7579C123.671 29.6849 122.4 30.2075 121.074 30.2108ZM121.024 10.4874C120.035 10.4898 119.068 10.203 118.244 9.66319C117.421 9.1234 116.778 8.35489 116.397 7.45482C116.017 6.55476 115.915 5.56357 116.106 4.6066C116.296 3.64964 116.77 2.76987 117.468 2.07856C118.165 1.38725 119.055 0.91544 120.024 0.722797C120.994 0.530154 121.999 0.625331 122.914 0.996289C123.828 1.36725 124.611 1.99732 125.162 2.80685C125.714 3.61637 126.009 4.56898 126.012 5.54421C126.015 6.85195 125.492 8.10743 124.556 9.03445C123.621 9.96147 122.35 10.4841 121.024 10.4874ZM101.673 266.941C100.684 266.943 99.7164 266.656 98.8928 266.117C98.0692 265.577 97.4264 264.808 97.0456 263.908C96.6649 263.008 96.5634 262.017 96.7539 261.06C96.9444 260.103 97.4184 259.223 98.1159 258.532C98.8134 257.841 99.7032 257.369 100.673 257.176C101.642 256.984 102.648 257.079 103.562 257.45C104.477 257.821 105.259 258.451 105.811 259.26C106.362 260.07 106.658 261.022 106.66 261.998C106.664 263.305 106.14 264.561 105.205 265.488C104.269 266.415 102.999 266.938 101.673 266.941ZM101.623 247.217C100.634 247.22 99.6665 246.933 98.8429 246.393C98.0193 245.854 97.3765 245.085 96.9958 244.185C96.6151 243.285 96.5135 242.294 96.704 241.337C96.8945 240.38 97.3685 239.5 98.066 238.809C98.7636 238.117 99.6533 237.646 100.623 237.453C101.592 237.26 102.598 237.355 103.512 237.726C104.427 238.097 105.209 238.727 105.761 239.537C106.312 240.346 106.608 241.299 106.61 242.274C106.614 243.582 106.09 244.838 105.155 245.765C104.219 246.692 102.949 247.214 101.623 247.217ZM101.573 227.494C100.584 227.496 99.6167 227.21 98.793 226.67C97.9694 226.13 97.3266 225.362 96.9459 224.462C96.5652 223.561 96.4637 222.57 96.6542 221.613C96.8447 220.656 97.3187 219.777 98.0162 219.085C98.7137 218.394 99.6034 217.922 100.573 217.729C101.542 217.537 102.548 217.632 103.462 218.003C104.377 218.374 105.159 219.004 105.711 219.814C106.262 220.623 106.558 221.576 106.56 222.551C106.564 223.859 106.04 225.114 105.105 226.041C104.17 226.968 102.899 227.491 101.573 227.494ZM101.523 207.771C100.534 207.773 99.5668 207.486 98.7432 206.946C97.9196 206.407 97.2768 205.638 96.896 204.738C96.5153 203.838 96.4138 202.847 96.6043 201.89C96.7948 200.933 97.2688 200.053 97.9663 199.362C98.6638 198.671 99.5536 198.199 100.523 198.006C101.492 197.813 102.498 197.909 103.413 198.28C104.327 198.651 105.11 199.281 105.661 200.09C106.213 200.9 106.508 201.852 106.511 202.827C106.514 204.135 105.99 205.391 105.055 206.318C104.12 207.245 102.849 207.767 101.523 207.771ZM101.473 188.047C100.484 188.05 99.5169 187.763 98.6933 187.223C97.8697 186.683 97.2269 185.915 96.8462 185.015C96.4655 184.115 96.3639 183.123 96.5544 182.166C96.7449 181.21 97.2189 180.33 97.9164 179.638C98.614 178.947 99.5037 178.475 100.473 178.283C101.443 178.09 102.448 178.185 103.363 178.556C104.277 178.927 105.06 179.557 105.611 180.367C106.163 181.176 106.458 182.129 106.461 183.104C106.464 184.412 105.94 185.667 105.005 186.594C104.07 187.521 102.799 188.044 101.473 188.047ZM101.423 168.324C100.434 168.326 99.4671 168.039 98.6434 167.5C97.8198 166.96 97.177 166.191 96.7963 165.291C96.4156 164.391 96.3141 163.4 96.5046 162.443C96.6951 161.486 97.1691 160.606 97.8666 159.915C98.5641 159.224 99.4538 158.752 100.423 158.559C101.393 158.367 102.398 158.462 103.313 158.833C104.227 159.204 105.01 159.834 105.561 160.643C106.113 161.453 106.408 162.405 106.411 163.381C106.414 164.688 105.891 165.944 104.955 166.871C104.02 167.798 102.749 168.321 101.423 168.324ZM101.374 148.6C100.385 148.603 99.4172 148.316 98.5936 147.776C97.77 147.236 97.1271 146.468 96.7464 145.568C96.3657 144.668 96.2642 143.677 96.4547 142.72C96.6452 141.763 97.1192 140.883 97.8167 140.192C98.5142 139.5 99.404 139.028 100.373 138.836C101.343 138.643 102.348 138.738 103.263 139.109C104.178 139.48 104.96 140.11 105.511 140.92C106.063 141.729 106.359 142.682 106.361 143.657C106.364 144.965 105.841 146.22 104.905 147.148C103.97 148.075 102.7 148.597 101.374 148.6ZM101.324 128.877C100.335 128.879 99.3673 128.593 98.5437 128.053C97.7201 127.513 97.0773 126.745 96.6966 125.844C96.3158 124.944 96.2143 123.953 96.4048 122.996C96.5953 122.039 97.0693 121.16 97.7668 120.468C98.4643 119.777 99.3541 119.305 100.323 119.112C101.293 118.92 102.299 119.015 103.213 119.386C104.128 119.757 104.91 120.387 105.462 121.196C106.013 122.006 106.309 122.959 106.311 123.934C106.314 125.242 105.791 126.497 104.856 127.424C103.92 128.351 102.65 128.874 101.324 128.877ZM101.274 109.154C100.285 109.156 99.3174 108.869 98.4938 108.329C97.6702 107.79 97.0274 107.021 96.6467 106.121C96.266 105.221 96.1645 104.23 96.355 103.273C96.5455 102.316 97.0195 101.436 97.717 100.745C98.4145 100.053 99.3042 99.5817 100.274 99.389C101.243 99.1964 102.249 99.2916 103.163 99.6625C104.078 100.033 104.86 100.664 105.412 101.473C105.963 102.283 106.259 103.235 106.261 104.21C106.265 105.518 105.741 106.774 104.806 107.701C103.87 108.628 102.6 109.15 101.274 109.154ZM101.224 89.4302C100.235 89.4326 99.2676 89.1458 98.444 88.606C97.6204 88.0662 96.9775 87.2977 96.5968 86.3976C96.2161 85.4976 96.1146 84.5064 96.3051 83.5494C96.4956 82.5925 96.9696 81.7127 97.6671 81.0214C98.3646 80.3301 99.2543 79.8583 100.224 79.6656C101.193 79.473 102.199 79.5681 103.113 79.9391C104.028 80.3101 104.81 80.9401 105.362 81.7497C105.913 82.5592 106.209 83.5118 106.211 84.487C106.215 85.7948 105.691 87.0503 104.756 87.9773C103.82 88.9043 102.55 89.4269 101.224 89.4302ZM101.174 69.7068C100.185 69.7092 99.2177 69.4224 98.3941 68.8826C97.5705 68.3428 96.9277 67.5743 96.5469 66.6742C96.1662 65.7742 96.0647 64.783 96.2552 63.826C96.4457 62.8691 96.9197 61.9893 97.6172 61.298C98.3147 60.6067 99.2045 60.1349 100.174 59.9422C101.143 59.7496 102.149 59.8447 103.063 60.2157C103.978 60.5867 104.761 61.2167 105.312 62.0263C105.863 62.8358 106.159 63.7884 106.162 64.7636C106.165 66.0714 105.641 67.3268 104.706 68.2539C103.771 69.1809 102.5 69.7035 101.174 69.7068ZM101.124 49.9834C100.135 49.9858 99.1678 49.699 98.3442 49.1592C97.5206 48.6194 96.8778 47.8509 96.4971 46.9508C96.1164 46.0508 96.0148 45.0596 96.2053 44.1026C96.3959 43.1456 96.8698 42.2659 97.5673 41.5746C98.2649 40.8832 99.1546 40.4114 100.124 40.2188C101.093 40.0262 102.099 40.1213 103.014 40.4923C103.928 40.8632 104.711 41.4933 105.262 42.3028C105.814 43.1124 106.109 44.065 106.112 45.0402C106.115 46.348 105.591 47.6034 104.656 48.5305C103.721 49.4575 102.45 49.9801 101.124 49.9834ZM101.074 30.2599C100.085 30.2624 99.118 29.9756 98.2943 29.4358C97.4707 28.896 96.8279 28.1275 96.4472 27.2274C96.0665 26.3273 95.965 25.3362 96.1555 24.3792C96.346 23.4222 96.82 22.5425 97.5175 21.8512C98.215 21.1598 99.1047 20.688 100.074 20.4954C101.044 20.3027 102.049 20.3979 102.964 20.7689C103.878 21.1398 104.661 21.7699 105.212 22.5794C105.764 23.389 106.059 24.3416 106.062 25.3168C106.065 26.6245 105.542 27.88 104.606 28.807C103.671 29.7341 102.4 30.2567 101.074 30.2599ZM101.024 10.5365C100.036 10.539 99.0681 10.2522 98.2445 9.71237C97.4209 9.17258 96.7781 8.40407 96.3973 7.504C96.0166 6.60394 95.9151 5.61275 96.1056 4.65578C96.2961 3.69882 96.7701 2.81905 97.4676 2.12774C98.1651 1.43643 99.0549 0.96462 100.024 0.771977C100.994 0.579334 101.999 0.674511 102.914 1.04547C103.828 1.41643 104.611 2.0465 105.162 2.85603C105.714 3.66555 106.009 4.61816 106.012 5.59339C106.015 6.90113 105.492 8.15661 104.556 9.08363C103.621 10.0107 102.35 10.5333 101.024 10.5365ZM81.6728 266.99C80.6839 266.992 79.7165 266.706 78.8928 266.166C78.0692 265.626 77.4264 264.858 77.0457 263.958C76.665 263.057 76.5635 262.066 76.754 261.109C76.9445 260.152 77.4185 259.273 78.116 258.581C78.8135 257.89 79.7032 257.418 80.6726 257.225C81.6421 257.033 82.6477 257.128 83.5622 257.499C84.4768 257.87 85.2593 258.5 85.8107 259.31C86.3622 260.119 86.6578 261.072 86.6603 262.047C86.6636 263.355 86.14 264.61 85.2047 265.537C84.2693 266.464 82.9989 266.987 81.6728 266.99ZM81.6229 247.267C80.634 247.269 79.6666 246.982 78.843 246.442C78.0194 245.903 77.3766 245.134 76.9958 244.234C76.6151 243.334 76.5136 242.343 76.7041 241.386C76.8946 240.429 77.3686 239.549 78.0661 238.858C78.7636 238.167 79.6534 237.695 80.6228 237.502C81.5922 237.309 82.5978 237.405 83.5123 237.776C84.4269 238.147 85.2094 238.777 85.7609 239.586C86.3123 240.396 86.608 241.348 86.6104 242.323C86.6137 243.631 86.0901 244.887 85.1548 245.814C84.2195 246.741 82.949 247.263 81.6229 247.267ZM81.573 227.543C80.5841 227.546 79.6167 227.259 78.7931 226.719C77.9695 226.179 77.3267 225.411 76.946 224.511C76.5653 223.611 76.4637 222.619 76.6542 221.662C76.8447 220.705 77.3187 219.826 78.0162 219.134C78.7138 218.443 79.6035 217.971 80.5729 217.779C81.5423 217.586 82.5479 217.681 83.4625 218.052C84.377 218.423 85.1595 219.053 85.711 219.863C86.2624 220.672 86.5581 221.625 86.5606 222.6C86.5639 223.908 86.0403 225.163 85.1049 226.09C84.1696 227.017 82.8991 227.54 81.573 227.543ZM81.5232 207.82C80.5343 207.822 79.5669 207.535 78.7432 206.996C77.9196 206.456 77.2768 205.687 76.8961 204.787C76.5154 203.887 76.4139 202.896 76.6044 201.939C76.7949 200.982 77.2689 200.102 77.9664 199.411C78.6639 198.72 79.5536 198.248 80.523 198.055C81.4925 197.863 82.498 197.958 83.4126 198.329C84.3272 198.7 85.1097 199.33 85.6611 200.139C86.2126 200.949 86.5082 201.901 86.5107 202.877C86.514 204.184 85.9904 205.44 85.055 206.367C84.1197 207.294 82.8493 207.817 81.5232 207.82ZM81.4733 188.096C80.4844 188.099 79.517 187.812 78.6934 187.272C77.8698 186.732 77.2269 185.964 76.8462 185.064C76.4655 184.164 76.364 183.173 76.5545 182.216C76.745 181.259 77.219 180.379 77.9165 179.688C78.614 178.996 79.5038 178.524 80.4732 178.332C81.4426 178.139 82.4482 178.234 83.3627 178.605C84.2773 178.976 85.0598 179.606 85.6112 180.416C86.1627 181.225 86.4584 182.178 86.4608 183.153C86.4641 184.461 85.9405 185.716 85.0052 186.644C84.0699 187.571 82.7994 188.093 81.4733 188.096ZM81.4234 168.373C80.4345 168.375 79.4671 168.089 78.6435 167.549C77.8199 167.009 77.1771 166.241 76.7964 165.34C76.4156 164.44 76.3141 163.449 76.5046 162.492C76.6951 161.535 77.1691 160.656 77.8666 159.964C78.5641 159.273 79.4539 158.801 80.4233 158.608C81.3927 158.416 82.3983 158.511 83.3129 158.882C84.2274 159.253 85.0099 159.883 85.5614 160.692C86.1128 161.502 86.4085 162.455 86.411 163.43C86.4143 164.738 85.8907 165.993 84.9553 166.92C84.02 167.847 82.7495 168.37 81.4234 168.373ZM81.3736 148.65C80.3847 148.652 79.4172 148.365 78.5936 147.825C77.77 147.286 77.1272 146.517 76.7465 145.617C76.3658 144.717 76.2643 143.726 76.4547 142.769C76.6453 141.812 77.1193 140.932 77.8168 140.241C78.5143 139.549 79.404 139.078 80.3734 138.885C81.3429 138.692 82.3484 138.788 83.263 139.159C84.1776 139.529 84.9601 140.16 85.5115 140.969C86.063 141.779 86.3586 142.731 86.3611 143.706C86.3644 145.014 85.8408 146.27 84.9054 147.197C83.9701 148.124 82.6997 148.646 81.3736 148.65ZM81.3237 128.926C80.3348 128.929 79.3674 128.642 78.5438 128.102C77.7202 127.562 77.0773 126.794 76.6966 125.894C76.3159 124.994 76.2144 124.002 76.4049 123.045C76.5954 122.088 77.0694 121.209 77.7669 120.517C78.4644 119.826 79.3541 119.354 80.3236 119.162C81.293 118.969 82.2986 119.064 83.2131 119.435C84.1277 119.806 84.9102 120.436 85.4616 121.246C86.0131 122.055 86.3087 123.008 86.3112 123.983C86.3145 125.291 85.7909 126.546 84.8556 127.473C83.9202 128.4 82.6498 128.923 81.3237 128.926ZM81.2738 109.203C80.2849 109.205 79.3175 108.918 78.4939 108.379C77.6703 107.839 77.0275 107.07 76.6467 106.17C76.266 105.27 76.1645 104.279 76.355 103.322C76.5455 102.365 77.0195 101.485 77.717 100.794C78.4145 100.103 79.3043 99.6308 80.2737 99.4382C81.2431 99.2456 82.2487 99.3407 83.1633 99.7117C84.0778 100.083 84.8603 100.713 85.4118 101.522C85.9632 102.332 86.2589 103.284 86.2613 104.26C86.2647 105.567 85.741 106.823 84.8057 107.75C83.8704 108.677 82.5999 109.2 81.2738 109.203ZM81.224 89.4794C80.2351 89.4818 79.2676 89.195 78.444 88.6552C77.6204 88.1154 76.9776 87.3469 76.5969 86.4468C76.2162 85.5468 76.1146 84.5556 76.3051 83.5986C76.4957 82.6416 76.9696 81.7619 77.6671 81.0706C78.3647 80.3792 79.2544 79.9074 80.2238 79.7148C81.1932 79.5222 82.1988 79.6173 83.1134 79.9883C84.028 80.3592 84.8104 80.9893 85.3619 81.7988C85.9134 82.6084 86.209 83.561 86.2115 84.5362C86.2148 85.844 85.6912 87.0994 84.7558 88.0265C83.8205 88.9535 82.55 89.4761 81.224 89.4794ZM81.1741 69.7559C80.1852 69.7584 79.2178 69.4716 78.3941 68.9318C77.5705 68.392 76.9277 67.6235 76.547 66.7234C76.1663 65.8233 76.0648 64.8322 76.2553 63.8752C76.4458 62.9182 76.9198 62.0385 77.6173 61.3471C78.3148 60.6558 79.2045 60.184 80.1739 59.9914C81.1434 59.7988 82.149 59.8939 83.0635 60.2649C83.9781 60.6358 84.7606 61.2659 85.312 62.0754C85.8635 62.885 86.1591 63.8376 86.1616 64.8128C86.1649 66.1205 85.6413 67.376 84.706 68.303C83.7706 69.2301 82.5002 69.7527 81.1741 69.7559ZM81.1242 50.0325C80.1353 50.035 79.1679 49.7482 78.3443 49.2084C77.5207 48.6686 76.8779 47.9001 76.4971 47C76.1164 46.0999 76.0149 45.1088 76.2054 44.1518C76.3959 43.1948 76.8699 42.3151 77.5674 41.6237C78.2649 40.9324 79.1547 40.4606 80.1241 40.268C81.0935 40.0753 82.0991 40.1705 83.0136 40.5415C83.9282 40.9124 84.7107 41.5425 85.2622 42.352C85.8136 43.1615 86.1093 44.1142 86.1117 45.0894C86.115 46.3971 85.5914 47.6526 84.6561 48.5796C83.7208 49.5067 82.4503 50.0293 81.1242 50.0325ZM81.0743 30.3091C80.0854 30.3116 79.118 30.0247 78.2944 29.485C77.4708 28.9452 76.828 28.1767 76.4473 27.2766C76.0666 26.3765 75.965 25.3853 76.1555 24.4284C76.346 23.4714 76.82 22.5916 77.5175 21.9003C78.2151 21.209 79.1048 20.7372 80.0742 20.5446C81.0436 20.3519 82.0492 20.4471 82.9638 20.8181C83.8784 21.189 84.6608 21.8191 85.2123 22.6286C85.7637 23.4381 86.0594 24.3908 86.0619 25.366C86.0652 26.6737 85.5416 27.9292 84.6062 28.8562C83.6709 29.7832 82.4004 30.3059 81.0743 30.3091ZM81.0245 10.5857C80.0356 10.5882 79.0682 10.3013 78.2445 9.76155C77.4209 9.22176 76.7781 8.45325 76.3974 7.55318C76.0167 6.65312 75.9152 5.66193 76.1057 4.70496C76.2962 3.748 76.7702 2.86823 77.4677 2.17692C78.1652 1.48561 79.0549 1.0138 80.0243 0.821157C80.9938 0.628514 81.9993 0.723691 82.9139 1.09465C83.8285 1.46561 84.611 2.09568 85.1624 2.90521C85.7139 3.71473 86.0095 4.66734 86.012 5.64257C86.0153 6.95031 85.4917 8.20579 84.5564 9.13281C83.621 10.0598 82.3506 10.5825 81.0245 10.5857Z" fill="#E5E5E5"/>
</svg>
