<svg width="130" height="23" viewBox="0 0 130 23" fill="none" xmlns="http://www.w3.org/2000/svg">
<path d="M13 0L15.9187 7.9463H25.3637L17.7225 12.8574L20.6412 20.8037L13 15.8926L5.35879 20.8037L8.27747 12.8574L0.636266 7.9463H10.0813L13 0Z" fill="#F39C12"/>
<path d="M39 0L41.9187 7.9463H51.3637L43.7225 12.8574L46.6412 20.8037L39 15.8926L31.3588 20.8037L34.2775 12.8574L26.6363 7.9463H36.0813L39 0Z" fill="#F39C12"/>
<path d="M65 0L67.9187 7.9463H77.3637L69.7225 12.8574L72.6412 20.8037L65 15.8926L57.3588 20.8037L60.2775 12.8574L52.6363 7.9463H62.0813L65 0Z" fill="#F39C12"/>
<path d="M91 0L93.9187 7.9463H103.364L95.7225 12.8574L98.6412 20.8037L91 15.8926L83.3588 20.8037L86.2775 12.8574L78.6363 7.9463H88.0813L91 0Z" fill="#F39C12"/>
<path d="M117 0L119.919 7.9463H129.364L121.723 12.8574L124.641 20.8037L117 15.8926L109.359 20.8037L112.277 12.8574L104.636 7.9463H114.081L117 0Z" fill="#F39C12"/>
</svg>
